<svg width="1438" height="722" viewBox="0 0 1438 722" fill="none" xmlns="http://www.w3.org/2000/svg">
<g clip-path="url(#clip0_19_712)">
<g clip-path="url(#clip1_19_712)">
<g opacity="0.5">
<path d="M40.277 65.8327C40.906 65.8327 41.4159 65.3969 41.4159 64.8594C41.4159 64.3219 40.906 63.8861 40.277 63.8861C39.6481 63.8861 39.1382 64.3219 39.1382 64.8594C39.1382 65.3969 39.6481 65.8327 40.277 65.8327Z" fill="#FEFEFE"/>
<path d="M211.103 65.8327C211.732 65.8327 212.242 65.3969 212.242 64.8594C212.242 64.3219 211.732 63.8861 211.103 63.8861C210.474 63.8861 209.964 64.3219 209.964 64.8594C209.964 65.3969 210.474 65.8327 211.103 65.8327Z" fill="#FEFEFE"/>
<path d="M381.93 65.8327C382.559 65.8327 383.069 65.3969 383.069 64.8594C383.069 64.3219 382.559 63.8861 381.93 63.8861C381.301 63.8861 380.791 64.3219 380.791 64.8594C380.791 65.3969 381.301 65.8327 381.93 65.8327Z" fill="#FEFEFE"/>
<path d="M552.755 65.8327C553.384 65.8327 553.894 65.3969 553.894 64.8594C553.894 64.3219 553.384 63.8861 552.755 63.8861C552.126 63.8861 551.616 64.3219 551.616 64.8594C551.616 65.3969 552.126 65.8327 552.755 65.8327Z" fill="#FEFEFE"/>
<path d="M723.582 65.8327C724.211 65.8327 724.721 65.3969 724.721 64.8594C724.721 64.3219 724.211 63.8861 723.582 63.8861C722.954 63.8861 722.444 64.3219 722.444 64.8594C722.444 65.3969 722.954 65.8327 723.582 65.8327Z" fill="#FEFEFE"/>
<path d="M894.406 65.8327C895.035 65.8327 895.544 65.3969 895.544 64.8594C895.544 64.3219 895.035 63.8861 894.406 63.8861C893.777 63.8861 893.267 64.3219 893.267 64.8594C893.267 65.3969 893.777 65.8327 894.406 65.8327Z" fill="#FEFEFE"/>
<path d="M1065.24 65.8327C1065.87 65.8327 1066.38 65.3969 1066.38 64.8594C1066.38 64.3219 1065.87 63.8861 1065.24 63.8861C1064.61 63.8861 1064.1 64.3219 1064.1 64.8594C1064.1 65.3969 1064.61 65.8327 1065.24 65.8327Z" fill="#FEFEFE"/>
<path d="M1236.06 65.8327C1236.69 65.8327 1237.2 65.3969 1237.2 64.8594C1237.2 64.3219 1236.69 63.8861 1236.06 63.8861C1235.43 63.8861 1234.92 64.3219 1234.92 64.8594C1234.92 65.3969 1235.43 65.8327 1236.06 65.8327Z" fill="#FEFEFE"/>
<path d="M142.773 172.889C143.402 172.889 143.912 172.453 143.912 171.916C143.912 171.378 143.402 170.943 142.773 170.943C142.144 170.943 141.635 171.378 141.635 171.916C141.635 172.453 142.144 172.889 142.773 172.889Z" fill="#FEFEFE"/>
<path d="M313.6 172.889C314.228 172.889 314.738 172.453 314.738 171.916C314.738 171.378 314.228 170.943 313.6 170.943C312.971 170.943 312.461 171.378 312.461 171.916C312.461 172.453 312.971 172.889 313.6 172.889Z" fill="#FEFEFE"/>
<path d="M484.425 172.889C485.054 172.889 485.564 172.453 485.564 171.916C485.564 171.378 485.054 170.943 484.425 170.943C483.796 170.943 483.286 171.378 483.286 171.916C483.286 172.453 483.796 172.889 484.425 172.889Z" fill="#FEFEFE"/>
<path d="M655.252 172.889C655.881 172.889 656.39 172.453 656.39 171.916C656.39 171.378 655.881 170.943 655.252 170.943C654.623 170.943 654.113 171.378 654.113 171.916C654.113 172.453 654.623 172.889 655.252 172.889Z" fill="#FEFEFE"/>
<path d="M826.078 172.889C826.707 172.889 827.217 172.453 827.217 171.916C827.217 171.378 826.707 170.943 826.078 170.943C825.449 170.943 824.939 171.378 824.939 171.916C824.939 172.453 825.449 172.889 826.078 172.889Z" fill="#FEFEFE"/>
<path d="M996.898 172.889C997.527 172.889 998.037 172.453 998.037 171.916C998.037 171.378 997.527 170.943 996.898 170.943C996.269 170.943 995.759 171.378 995.759 171.916C995.759 172.453 996.269 172.889 996.898 172.889Z" fill="#FEFEFE"/>
<path d="M1167.73 172.889C1168.36 172.889 1168.87 172.453 1168.87 171.916C1168.87 171.378 1168.36 170.943 1167.73 170.943C1167.1 170.943 1166.59 171.378 1166.59 171.916C1166.59 172.453 1167.1 172.889 1167.73 172.889Z" fill="#FEFEFE"/>
<path d="M63.0549 278.003C63.6839 278.003 64.1938 277.567 64.1938 277.029C64.1938 276.492 63.6839 276.056 63.0549 276.056C62.4259 276.056 61.916 276.492 61.916 277.029C61.916 277.567 62.4259 278.003 63.0549 278.003Z" fill="#FEFEFE"/>
<path d="M233.88 278.003C234.509 278.003 235.018 277.567 235.018 277.029C235.018 276.492 234.509 276.056 233.88 276.056C233.251 276.056 232.741 276.492 232.741 277.029C232.741 277.567 233.251 278.003 233.88 278.003Z" fill="#FEFEFE"/>
<path d="M404.706 278.003C405.334 278.003 405.844 277.567 405.844 277.029C405.844 276.492 405.334 276.056 404.706 276.056C404.077 276.056 403.567 276.492 403.567 277.029C403.567 277.567 404.077 278.003 404.706 278.003Z" fill="#FEFEFE"/>
<path d="M575.533 278.003C576.162 278.003 576.672 277.567 576.672 277.029C576.672 276.492 576.162 276.056 575.533 276.056C574.904 276.056 574.394 276.492 574.394 277.029C574.394 277.567 574.904 278.003 575.533 278.003Z" fill="#FEFEFE"/>
<path d="M746.359 278.003C746.988 278.003 747.498 277.567 747.498 277.029C747.498 276.492 746.988 276.056 746.359 276.056C745.73 276.056 745.22 276.492 745.22 277.029C745.22 277.567 745.73 278.003 746.359 278.003Z" fill="#FEFEFE"/>
<path d="M917.186 278.003C917.815 278.003 918.325 277.567 918.325 277.029C918.325 276.492 917.815 276.056 917.186 276.056C916.557 276.056 916.048 276.492 916.048 277.029C916.048 277.567 916.557 278.003 917.186 278.003Z" fill="#FEFEFE"/>
<path d="M1088.01 278.003C1088.64 278.003 1089.15 277.567 1089.15 277.029C1089.15 276.492 1088.64 276.056 1088.01 276.056C1087.38 276.056 1086.87 276.492 1086.87 277.029C1086.87 277.567 1087.38 278.003 1088.01 278.003Z" fill="#FEFEFE"/>
<path d="M165.55 385.047C166.179 385.047 166.689 384.611 166.689 384.074C166.689 383.536 166.179 383.1 165.55 383.1C164.921 383.1 164.411 383.536 164.411 384.074C164.411 384.611 164.921 385.047 165.55 385.047Z" fill="#FEFEFE"/>
<path d="M336.376 385.047C337.005 385.047 337.515 384.611 337.515 384.074C337.515 383.536 337.005 383.1 336.376 383.1C335.747 383.1 335.237 383.536 335.237 384.074C335.237 384.611 335.747 385.047 336.376 385.047Z" fill="#FEFEFE"/>
<path d="M507.202 385.047C507.831 385.047 508.341 384.611 508.341 384.074C508.341 383.536 507.831 383.1 507.202 383.1C506.573 383.1 506.063 383.536 506.063 384.074C506.063 384.611 506.573 385.047 507.202 385.047Z" fill="#FEFEFE"/>
<path d="M678.028 385.047C678.657 385.047 679.167 384.611 679.167 384.074C679.167 383.536 678.657 383.1 678.028 383.1C677.399 383.1 676.889 383.536 676.889 384.074C676.889 384.611 677.399 385.047 678.028 385.047Z" fill="#FEFEFE"/>
<path d="M848.858 385.047C849.487 385.047 849.997 384.611 849.997 384.074C849.997 383.536 849.487 383.1 848.858 383.1C848.229 383.1 847.719 383.536 847.719 384.074C847.719 384.611 848.229 385.047 848.858 385.047Z" fill="#FEFEFE"/>
<path d="M1019.68 385.047C1020.31 385.047 1020.82 384.611 1020.82 384.074C1020.82 383.536 1020.31 383.1 1019.68 383.1C1019.05 383.1 1018.54 383.536 1018.54 384.074C1018.54 384.611 1019.05 385.047 1019.68 385.047Z" fill="#FEFEFE"/>
<path d="M1190.51 385.047C1191.14 385.047 1191.65 384.611 1191.65 384.074C1191.65 383.536 1191.14 383.1 1190.51 383.1C1189.88 383.1 1189.37 383.536 1189.37 384.074C1189.37 384.611 1189.88 385.047 1190.51 385.047Z" fill="#FEFEFE"/>
<path d="M97.2204 492.116C97.8494 492.116 98.3593 491.68 98.3593 491.142C98.3593 490.605 97.8494 490.169 97.2204 490.169C96.5915 490.169 96.0815 490.605 96.0815 491.142C96.0815 491.68 96.5915 492.116 97.2204 492.116Z" fill="#FEFEFE"/>
<path d="M268.046 492.116C268.675 492.116 269.185 491.68 269.185 491.142C269.185 490.605 268.675 490.169 268.046 490.169C267.417 490.169 266.908 490.605 266.908 491.142C266.908 491.68 267.417 492.116 268.046 492.116Z" fill="#FEFEFE"/>
<path d="M438.871 492.116C439.5 492.116 440.01 491.68 440.01 491.142C440.01 490.605 439.5 490.169 438.871 490.169C438.242 490.169 437.732 490.605 437.732 491.142C437.732 491.68 438.242 492.116 438.871 492.116Z" fill="#FEFEFE"/>
<path d="M609.697 492.116C610.326 492.116 610.836 491.68 610.836 491.142C610.836 490.605 610.326 490.169 609.697 490.169C609.068 490.169 608.558 490.605 608.558 491.142C608.558 491.68 609.068 492.116 609.697 492.116Z" fill="#FEFEFE"/>
<path d="M780.524 492.116C781.153 492.116 781.663 491.68 781.663 491.142C781.663 490.605 781.153 490.169 780.524 490.169C779.895 490.169 779.386 490.605 779.386 491.142C779.386 491.68 779.895 492.116 780.524 492.116Z" fill="#FEFEFE"/>
<path d="M951.35 492.116C951.979 492.116 952.489 491.68 952.489 491.142C952.489 490.605 951.979 490.169 951.35 490.169C950.721 490.169 950.212 490.605 950.212 491.142C950.212 491.68 950.721 492.116 951.35 492.116Z" fill="#FEFEFE"/>
<path d="M1122.17 492.116C1122.8 492.116 1123.31 491.68 1123.31 491.142C1123.31 490.605 1122.8 490.169 1122.17 490.169C1121.54 490.169 1121.03 490.605 1121.03 491.142C1121.03 491.68 1121.54 492.116 1122.17 492.116Z" fill="#FEFEFE"/>
<path d="M165.55 599.16C166.179 599.16 166.689 598.724 166.689 598.187C166.689 597.649 166.179 597.214 165.55 597.214C164.921 597.214 164.411 597.649 164.411 598.187C164.411 598.724 164.921 599.16 165.55 599.16Z" fill="#FEFEFE"/>
<path d="M336.376 599.16C337.005 599.16 337.515 598.724 337.515 598.187C337.515 597.649 337.005 597.214 336.376 597.214C335.747 597.214 335.237 597.649 335.237 598.187C335.237 598.724 335.747 599.16 336.376 599.16Z" fill="#FEFEFE"/>
<path d="M507.202 599.16C507.831 599.16 508.341 598.724 508.341 598.187C508.341 597.649 507.831 597.214 507.202 597.214C506.573 597.214 506.063 597.649 506.063 598.187C506.063 598.724 506.573 599.16 507.202 599.16Z" fill="#FEFEFE"/>
<path d="M678.028 599.16C678.657 599.16 679.167 598.724 679.167 598.187C679.167 597.649 678.657 597.214 678.028 597.214C677.399 597.214 676.889 597.649 676.889 598.187C676.889 598.724 677.399 599.16 678.028 599.16Z" fill="#FEFEFE"/>
<path d="M848.858 599.16C849.487 599.16 849.997 598.724 849.997 598.187C849.997 597.649 849.487 597.214 848.858 597.214C848.229 597.214 847.719 597.649 847.719 598.187C847.719 598.724 848.229 599.16 848.858 599.16Z" fill="#FEFEFE"/>
<path d="M1019.68 599.16C1020.31 599.16 1020.82 598.724 1020.82 598.187C1020.82 597.649 1020.31 597.214 1019.68 597.214C1019.05 597.214 1018.54 597.649 1018.54 598.187C1018.54 598.724 1019.05 599.16 1019.68 599.16Z" fill="#FEFEFE"/>
<path d="M119.997 696.501C120.626 696.501 121.136 696.065 121.136 695.527C121.136 694.99 120.626 694.554 119.997 694.554C119.368 694.554 118.858 694.99 118.858 695.527C118.858 696.065 119.368 696.501 119.997 696.501Z" fill="#FEFEFE"/>
<path d="M290.822 696.501C291.451 696.501 291.96 696.065 291.96 695.527C291.96 694.99 291.451 694.554 290.822 694.554C290.193 694.554 289.683 694.99 289.683 695.527C289.683 696.065 290.193 696.501 290.822 696.501Z" fill="#FEFEFE"/>
<path d="M461.649 696.501C462.278 696.501 462.788 696.065 462.788 695.527C462.788 694.99 462.278 694.554 461.649 694.554C461.02 694.554 460.51 694.99 460.51 695.527C460.51 696.065 461.02 696.501 461.649 696.501Z" fill="#FEFEFE"/>
<path d="M632.475 696.501C633.104 696.501 633.614 696.065 633.614 695.527C633.614 694.99 633.104 694.554 632.475 694.554C631.846 694.554 631.336 694.99 631.336 695.527C631.336 696.065 631.846 696.501 632.475 696.501Z" fill="#FEFEFE"/>
<path d="M803.297 696.501C803.926 696.501 804.436 696.065 804.436 695.527C804.436 694.99 803.926 694.554 803.297 694.554C802.668 694.554 802.158 694.99 802.158 695.527C802.158 696.065 802.668 696.501 803.297 696.501Z" fill="#FEFEFE"/>
<path d="M974.131 696.501C974.76 696.501 975.27 696.065 975.27 695.527C975.27 694.99 974.76 694.554 974.131 694.554C973.502 694.554 972.993 694.99 972.993 695.527C972.993 696.065 973.502 696.501 974.131 696.501Z" fill="#FEFEFE"/>
<path d="M974.131 696.501C974.76 696.501 975.27 696.065 975.27 695.527C975.27 694.99 974.76 694.554 974.131 694.554C973.502 694.554 972.993 694.99 972.993 695.527C972.993 696.065 973.502 696.501 974.131 696.501Z" fill="#FEFEFE"/>
<path d="M1190.51 599.16C1191.14 599.16 1191.65 598.724 1191.65 598.187C1191.65 597.649 1191.14 597.214 1190.51 597.214C1189.88 597.214 1189.37 597.649 1189.37 598.187C1189.37 598.724 1189.88 599.16 1190.51 599.16Z" fill="#FEFEFE"/>
<path d="M97.2204 75.5728C97.8494 75.5728 98.3593 75.137 98.3593 74.5995C98.3593 74.062 97.8494 73.6263 97.2204 73.6263C96.5915 73.6263 96.0815 74.062 96.0815 74.5995C96.0815 75.137 96.5915 75.5728 97.2204 75.5728Z" fill="#FEFEFE"/>
<path d="M268.046 75.5728C268.675 75.5728 269.185 75.137 269.185 74.5995C269.185 74.062 268.675 73.6263 268.046 73.6263C267.417 73.6263 266.908 74.062 266.908 74.5995C266.908 75.137 267.417 75.5728 268.046 75.5728Z" fill="#FEFEFE"/>
<path d="M438.872 75.5728C439.501 75.5728 440.011 75.137 440.011 74.5995C440.011 74.062 439.501 73.6263 438.872 73.6263C438.243 73.6263 437.734 74.062 437.734 74.5995C437.734 75.137 438.243 75.5728 438.872 75.5728Z" fill="#FEFEFE"/>
<path d="M609.697 75.5728C610.326 75.5728 610.836 75.137 610.836 74.5995C610.836 74.062 610.326 73.6263 609.697 73.6263C609.068 73.6263 608.558 74.062 608.558 74.5995C608.558 75.137 609.068 75.5728 609.697 75.5728Z" fill="#FEFEFE"/>
<path d="M780.524 75.5728C781.153 75.5728 781.663 75.137 781.663 74.5995C781.663 74.062 781.153 73.6263 780.524 73.6263C779.895 73.6263 779.386 74.062 779.386 74.5995C779.386 75.137 779.895 75.5728 780.524 75.5728Z" fill="#FEFEFE"/>
<path d="M951.35 75.5728C951.979 75.5728 952.489 75.137 952.489 74.5995C952.489 74.062 951.979 73.6263 951.35 73.6263C950.721 73.6263 950.212 74.062 950.212 74.5995C950.212 75.137 950.721 75.5728 951.35 75.5728Z" fill="#FEFEFE"/>
<path d="M1122.17 75.5728C1122.8 75.5728 1123.31 75.137 1123.31 74.5995C1123.31 74.062 1122.8 73.6263 1122.17 73.6263C1121.54 73.6263 1121.03 74.062 1121.03 74.5995C1121.03 75.137 1121.54 75.5728 1122.17 75.5728Z" fill="#FEFEFE"/>
<path d="M1293.01 73.6175C1293.63 73.6175 1294.14 73.1817 1294.14 72.6442C1294.14 72.1067 1293.63 71.6709 1293.01 71.6709C1292.38 71.6709 1291.87 72.1067 1291.87 72.6442C1291.87 73.1817 1292.38 73.6175 1293.01 73.6175Z" fill="#FEFEFE"/>
<path d="M28.8893 182.617C29.5183 182.617 30.0281 182.181 30.0281 181.644C30.0281 181.106 29.5183 180.671 28.8893 180.671C28.2604 180.671 27.7505 181.106 27.7505 181.644C27.7505 182.181 28.2604 182.617 28.8893 182.617Z" fill="#FEFEFE"/>
<path d="M199.716 182.617C200.345 182.617 200.854 182.181 200.854 181.644C200.854 181.106 200.345 180.671 199.716 180.671C199.087 180.671 198.577 181.106 198.577 181.644C198.577 182.181 199.087 182.617 199.716 182.617Z" fill="#FEFEFE"/>
<path d="M370.541 182.617C371.17 182.617 371.68 182.181 371.68 181.644C371.68 181.106 371.17 180.671 370.541 180.671C369.912 180.671 369.403 181.106 369.403 181.644C369.403 182.181 369.912 182.617 370.541 182.617Z" fill="#FEFEFE"/>
<path d="M541.367 182.617C541.996 182.617 542.506 182.181 542.506 181.644C542.506 181.106 541.996 180.671 541.367 180.671C540.738 180.671 540.229 181.106 540.229 181.644C540.229 182.181 540.738 182.617 541.367 182.617Z" fill="#FEFEFE"/>
<path d="M712.193 182.617C712.822 182.617 713.332 182.181 713.332 181.644C713.332 181.106 712.822 180.671 712.193 180.671C711.565 180.671 711.055 181.106 711.055 181.644C711.055 182.181 711.565 182.617 712.193 182.617Z" fill="#FEFEFE"/>
<path d="M883.022 182.617C883.651 182.617 884.161 182.181 884.161 181.644C884.161 181.106 883.651 180.671 883.022 180.671C882.393 180.671 881.883 181.106 881.883 181.644C881.883 182.181 882.393 182.617 883.022 182.617Z" fill="#FEFEFE"/>
<path d="M1053.84 182.617C1054.47 182.617 1054.98 182.181 1054.98 181.644C1054.98 181.106 1054.47 180.671 1053.84 180.671C1053.21 180.671 1052.7 181.106 1052.7 181.644C1052.7 182.181 1053.21 182.617 1053.84 182.617Z" fill="#FEFEFE"/>
<path d="M1224.68 182.617C1225.31 182.617 1225.82 182.181 1225.82 181.644C1225.82 181.106 1225.31 180.671 1224.68 180.671C1224.05 180.671 1223.54 181.106 1223.54 181.644C1223.54 182.181 1224.05 182.617 1224.68 182.617Z" fill="#FEFEFE"/>
<path d="M119.997 287.731C120.626 287.731 121.136 287.295 121.136 286.757C121.136 286.22 120.626 285.784 119.997 285.784C119.368 285.784 118.858 286.22 118.858 286.757C118.858 287.295 119.368 287.731 119.997 287.731Z" fill="#FEFEFE"/>
<path d="M290.823 287.731C291.452 287.731 291.962 287.295 291.962 286.757C291.962 286.22 291.452 285.784 290.823 285.784C290.194 285.784 289.684 286.22 289.684 286.757C289.684 287.295 290.194 287.731 290.823 287.731Z" fill="#FEFEFE"/>
<path d="M461.649 287.731C462.278 287.731 462.788 287.295 462.788 286.757C462.788 286.22 462.278 285.784 461.649 285.784C461.02 285.784 460.51 286.22 460.51 286.757C460.51 287.295 461.02 287.731 461.649 287.731Z" fill="#FEFEFE"/>
<path d="M632.475 287.731C633.104 287.731 633.614 287.295 633.614 286.757C633.614 286.22 633.104 285.784 632.475 285.784C631.846 285.784 631.336 286.22 631.336 286.757C631.336 287.295 631.846 287.731 632.475 287.731Z" fill="#FEFEFE"/>
<path d="M803.297 287.731C803.926 287.731 804.436 287.295 804.436 286.757C804.436 286.22 803.926 285.784 803.297 285.784C802.668 285.784 802.158 286.22 802.158 286.757C802.158 287.295 802.668 287.731 803.297 287.731Z" fill="#FEFEFE"/>
<path d="M974.131 287.731C974.76 287.731 975.27 287.295 975.27 286.757C975.27 286.22 974.76 285.784 974.131 285.784C973.502 285.784 972.993 286.22 972.993 286.757C972.993 287.295 973.502 287.731 974.131 287.731Z" fill="#FEFEFE"/>
<path d="M1144.95 287.731C1145.58 287.731 1146.09 287.295 1146.09 286.757C1146.09 286.22 1145.58 285.784 1144.95 285.784C1144.32 285.784 1143.81 286.22 1143.81 286.757C1143.81 287.295 1144.32 287.731 1144.95 287.731Z" fill="#FEFEFE"/>
<path d="M51.6659 394.787C52.2949 394.787 52.8048 394.351 52.8048 393.814C52.8048 393.276 52.2949 392.841 51.6659 392.841C51.0369 392.841 50.5271 393.276 50.5271 393.814C50.5271 394.351 51.0369 394.787 51.6659 394.787Z" fill="#FEFEFE"/>
<path d="M222.492 394.787C223.121 394.787 223.631 394.351 223.631 393.814C223.631 393.276 223.121 392.841 222.492 392.841C221.863 392.841 221.353 393.276 221.353 393.814C221.353 394.351 221.863 394.787 222.492 394.787Z" fill="#FEFEFE"/>
<path d="M393.318 394.787C393.947 394.787 394.457 394.351 394.457 393.814C394.457 393.276 393.947 392.841 393.318 392.841C392.689 392.841 392.179 393.276 392.179 393.814C392.179 394.351 392.689 394.787 393.318 394.787Z" fill="#FEFEFE"/>
<path d="M564.144 394.787C564.773 394.787 565.283 394.351 565.283 393.814C565.283 393.276 564.773 392.841 564.144 392.841C563.515 392.841 563.005 393.276 563.005 393.814C563.005 394.351 563.515 394.787 564.144 394.787Z" fill="#FEFEFE"/>
<path d="M734.97 394.787C735.599 394.787 736.109 394.351 736.109 393.814C736.109 393.276 735.599 392.841 734.97 392.841C734.341 392.841 733.831 393.276 733.831 393.814C733.831 394.351 734.341 394.787 734.97 394.787Z" fill="#FEFEFE"/>
<path d="M905.789 394.787C906.418 394.787 906.928 394.351 906.928 393.814C906.928 393.276 906.418 392.841 905.789 392.841C905.16 392.841 904.65 393.276 904.65 393.814C904.65 394.351 905.16 394.787 905.789 394.787Z" fill="#FEFEFE"/>
<path d="M1076.62 394.787C1077.25 394.787 1077.76 394.351 1077.76 393.814C1077.76 393.276 1077.25 392.841 1076.62 392.841C1075.99 392.841 1075.48 393.276 1075.48 393.814C1075.48 394.351 1075.99 394.787 1076.62 394.787Z" fill="#FEFEFE"/>
<path d="M1247.44 394.787C1248.07 394.787 1248.58 394.351 1248.58 393.814C1248.58 393.276 1248.07 392.841 1247.44 392.841C1246.82 392.841 1246.31 393.276 1246.31 393.814C1246.31 394.351 1246.82 394.787 1247.44 394.787Z" fill="#FEFEFE"/>
<path d="M154.162 501.844C154.791 501.844 155.301 501.408 155.301 500.87C155.301 500.333 154.791 499.897 154.162 499.897C153.534 499.897 153.024 500.333 153.024 500.87C153.024 501.408 153.534 501.844 154.162 501.844Z" fill="#FEFEFE"/>
<path d="M324.988 501.844C325.617 501.844 326.127 501.408 326.127 500.87C326.127 500.333 325.617 499.897 324.988 499.897C324.359 499.897 323.85 500.333 323.85 500.87C323.85 501.408 324.359 501.844 324.988 501.844Z" fill="#FEFEFE"/>
<path d="M495.813 501.844C496.442 501.844 496.952 501.408 496.952 500.87C496.952 500.333 496.442 499.897 495.813 499.897C495.184 499.897 494.674 500.333 494.674 500.87C494.674 501.408 495.184 501.844 495.813 501.844Z" fill="#FEFEFE"/>
<path d="M666.639 501.844C667.268 501.844 667.778 501.408 667.778 500.87C667.778 500.333 667.268 499.897 666.639 499.897C666.01 499.897 665.5 500.333 665.5 500.87C665.5 501.408 666.01 501.844 666.639 501.844Z" fill="#FEFEFE"/>
<path d="M837.461 501.844C838.09 501.844 838.6 501.408 838.6 500.87C838.6 500.333 838.09 499.897 837.461 499.897C836.832 499.897 836.322 500.333 836.322 500.87C836.322 501.408 836.832 501.844 837.461 501.844Z" fill="#FEFEFE"/>
<path d="M1008.3 501.844C1008.92 501.844 1009.43 501.408 1009.43 500.87C1009.43 500.333 1008.92 499.897 1008.3 499.897C1007.67 499.897 1007.16 500.333 1007.16 500.87C1007.16 501.408 1007.67 501.844 1008.3 501.844Z" fill="#FEFEFE"/>
<path d="M1179.12 501.844C1179.74 501.844 1180.25 501.408 1180.25 500.87C1180.25 500.333 1179.74 499.897 1179.12 499.897C1178.49 499.897 1177.98 500.333 1177.98 500.87C1177.98 501.408 1178.49 501.844 1179.12 501.844Z" fill="#FEFEFE"/>
<path d="M51.6659 608.9C52.2949 608.9 52.8048 608.464 52.8048 607.927C52.8048 607.39 52.2949 606.954 51.6659 606.954C51.0369 606.954 50.5271 607.39 50.5271 607.927C50.5271 608.464 51.0369 608.9 51.6659 608.9Z" fill="#FEFEFE"/>
<path d="M222.492 608.9C223.121 608.9 223.631 608.464 223.631 607.927C223.631 607.39 223.121 606.954 222.492 606.954C221.863 606.954 221.353 607.39 221.353 607.927C221.353 608.464 221.863 608.9 222.492 608.9Z" fill="#FEFEFE"/>
<path d="M393.318 608.9C393.947 608.9 394.457 608.464 394.457 607.927C394.457 607.39 393.947 606.954 393.318 606.954C392.689 606.954 392.179 607.39 392.179 607.927C392.179 608.464 392.689 608.9 393.318 608.9Z" fill="#FEFEFE"/>
<path d="M564.144 608.9C564.773 608.9 565.283 608.464 565.283 607.927C565.283 607.39 564.773 606.954 564.144 606.954C563.515 606.954 563.005 607.39 563.005 607.927C563.005 608.464 563.515 608.9 564.144 608.9Z" fill="#FEFEFE"/>
<path d="M734.97 608.9C735.599 608.9 736.109 608.464 736.109 607.927C736.109 607.39 735.599 606.954 734.97 606.954C734.341 606.954 733.831 607.39 733.831 607.927C733.831 608.464 734.341 608.9 734.97 608.9Z" fill="#FEFEFE"/>
<path d="M905.789 608.9C906.418 608.9 906.928 608.464 906.928 607.927C906.928 607.39 906.418 606.954 905.789 606.954C905.16 606.954 904.65 607.39 904.65 607.927C904.65 608.464 905.16 608.9 905.789 608.9Z" fill="#FEFEFE"/>
<path d="M1076.62 608.9C1077.25 608.9 1077.76 608.464 1077.76 607.927C1077.76 607.39 1077.25 606.954 1076.62 606.954C1075.99 606.954 1075.48 607.39 1075.48 607.927C1075.48 608.464 1075.99 608.9 1076.62 608.9Z" fill="#FEFEFE"/>
<path d="M6.11288 706.229C6.74181 706.229 7.25169 705.793 7.25169 705.255C7.25169 704.718 6.74181 704.282 6.11288 704.282C5.48395 704.282 4.97412 704.718 4.97412 705.255C4.97412 705.793 5.48395 706.229 6.11288 706.229Z" fill="#FEFEFE"/>
<path d="M176.939 706.229C177.568 706.229 178.078 705.793 178.078 705.255C178.078 704.718 177.568 704.282 176.939 704.282C176.31 704.282 175.8 704.718 175.8 705.255C175.8 705.793 176.31 706.229 176.939 706.229Z" fill="#FEFEFE"/>
<path d="M347.765 706.229C348.394 706.229 348.904 705.793 348.904 705.255C348.904 704.718 348.394 704.282 347.765 704.282C347.136 704.282 346.626 704.718 346.626 705.255C346.626 705.793 347.136 706.229 347.765 706.229Z" fill="#FEFEFE"/>
<path d="M518.591 706.229C519.22 706.229 519.73 705.793 519.73 705.255C519.73 704.718 519.22 704.282 518.591 704.282C517.962 704.282 517.452 704.718 517.452 705.255C517.452 705.793 517.962 706.229 518.591 706.229Z" fill="#FEFEFE"/>
<path d="M689.417 706.229C690.046 706.229 690.556 705.793 690.556 705.255C690.556 704.718 690.046 704.282 689.417 704.282C688.788 704.282 688.278 704.718 688.278 705.255C688.278 705.793 688.788 706.229 689.417 706.229Z" fill="#FEFEFE"/>
<path d="M860.242 706.229C860.871 706.229 861.38 705.793 861.38 705.255C861.38 704.718 860.871 704.282 860.242 704.282C859.613 704.282 859.103 704.718 859.103 705.255C859.103 705.793 859.613 706.229 860.242 706.229Z" fill="#FEFEFE"/>
<path d="M1031.06 706.229C1031.69 706.229 1032.2 705.793 1032.2 705.255C1032.2 704.718 1031.69 704.282 1031.06 704.282C1030.43 704.282 1029.92 704.718 1029.92 705.255C1029.92 705.793 1030.43 706.229 1031.06 706.229Z" fill="#FEFEFE"/>
<path d="M1031.06 706.229C1031.69 706.229 1032.2 705.793 1032.2 705.255C1032.2 704.718 1031.69 704.282 1031.06 704.282C1030.43 704.282 1029.92 704.718 1029.92 705.255C1029.92 705.793 1030.43 706.229 1031.06 706.229Z" fill="#FEFEFE"/>
<path d="M1247.44 608.9C1248.07 608.9 1248.58 608.464 1248.58 607.927C1248.58 607.39 1248.07 606.954 1247.44 606.954C1246.82 606.954 1246.31 607.39 1246.31 607.927C1246.31 608.464 1246.82 608.9 1247.44 608.9Z" fill="#FEFEFE"/>
<path d="M67.6095 7.44034C68.2384 7.44034 68.7483 7.00458 68.7483 6.46706C68.7483 5.92953 68.2384 5.49377 67.6095 5.49377C66.9806 5.49377 66.4707 5.92953 66.4707 6.46706C66.4707 7.00458 66.9806 7.44034 67.6095 7.44034Z" fill="#FEFEFE"/>
<path d="M238.436 7.44034C239.065 7.44034 239.574 7.00458 239.574 6.46706C239.574 5.92953 239.065 5.49377 238.436 5.49377C237.807 5.49377 237.297 5.92953 237.297 6.46706C237.297 7.00458 237.807 7.44034 238.436 7.44034Z" fill="#FEFEFE"/>
<path d="M409.262 7.44034C409.891 7.44034 410.401 7.00458 410.401 6.46706C410.401 5.92953 409.891 5.49377 409.262 5.49377C408.633 5.49377 408.123 5.92953 408.123 6.46706C408.123 7.00458 408.633 7.44034 409.262 7.44034Z" fill="#FEFEFE"/>
<path d="M580.088 7.44034C580.717 7.44034 581.227 7.00458 581.227 6.46706C581.227 5.92953 580.717 5.49377 580.088 5.49377C579.459 5.49377 578.949 5.92953 578.949 6.46706C578.949 7.00458 579.459 7.44034 580.088 7.44034Z" fill="#FEFEFE"/>
<path d="M750.914 7.44034C751.543 7.44034 752.053 7.00458 752.053 6.46706C752.053 5.92953 751.543 5.49377 750.914 5.49377C750.285 5.49377 749.775 5.92953 749.775 6.46706C749.775 7.00458 750.285 7.44034 750.914 7.44034Z" fill="#FEFEFE"/>
<path d="M921.734 7.44034C922.363 7.44034 922.873 7.00458 922.873 6.46706C922.873 5.92953 922.363 5.49377 921.734 5.49377C921.105 5.49377 920.595 5.92953 920.595 6.46706C920.595 7.00458 921.105 7.44034 921.734 7.44034Z" fill="#FEFEFE"/>
<path d="M1092.57 7.44034C1093.2 7.44034 1093.71 7.00458 1093.71 6.46706C1093.71 5.92953 1093.2 5.49377 1092.57 5.49377C1091.94 5.49377 1091.43 5.92953 1091.43 6.46706C1091.43 7.00458 1091.94 7.44034 1092.57 7.44034Z" fill="#FEFEFE"/>
<path d="M147.328 114.497C147.957 114.497 148.467 114.061 148.467 113.524C148.467 112.986 147.957 112.55 147.328 112.55C146.699 112.55 146.189 112.986 146.189 113.524C146.189 114.061 146.699 114.497 147.328 114.497Z" fill="#FEFEFE"/>
<path d="M318.156 114.497C318.785 114.497 319.294 114.061 319.294 113.524C319.294 112.986 318.785 112.55 318.156 112.55C317.527 112.55 317.017 112.986 317.017 113.524C317.017 114.061 317.527 114.497 318.156 114.497Z" fill="#FEFEFE"/>
<path d="M488.98 114.497C489.609 114.497 490.119 114.061 490.119 113.524C490.119 112.986 489.609 112.55 488.98 112.55C488.351 112.55 487.841 112.986 487.841 113.524C487.841 114.061 488.351 114.497 488.98 114.497Z" fill="#FEFEFE"/>
<path d="M659.806 114.497C660.435 114.497 660.945 114.061 660.945 113.524C660.945 112.986 660.435 112.55 659.806 112.55C659.177 112.55 658.667 112.986 658.667 113.524C658.667 114.061 659.177 114.497 659.806 114.497Z" fill="#FEFEFE"/>
<path d="M830.625 114.497C831.254 114.497 831.764 114.061 831.764 113.524C831.764 112.986 831.254 112.55 830.625 112.55C829.996 112.55 829.486 112.986 829.486 113.524C829.486 114.061 829.996 114.497 830.625 114.497Z" fill="#FEFEFE"/>
<path d="M1001.46 114.497C1002.09 114.497 1002.6 114.061 1002.6 113.524C1002.6 112.986 1002.09 112.55 1001.46 112.55C1000.83 112.55 1000.32 112.986 1000.32 113.524C1000.32 114.061 1000.83 114.497 1001.46 114.497Z" fill="#FEFEFE"/>
<path d="M1172.28 114.497C1172.91 114.497 1173.42 114.061 1173.42 113.524C1173.42 112.986 1172.91 112.55 1172.28 112.55C1171.65 112.55 1171.14 112.986 1171.14 113.524C1171.14 114.061 1171.65 114.497 1172.28 114.497Z" fill="#FEFEFE"/>
<path d="M78.9972 221.554C79.6262 221.554 80.1361 221.118 80.1361 220.58C80.1361 220.043 79.6262 219.607 78.9972 219.607C78.3682 219.607 77.8584 220.043 77.8584 220.58C77.8584 221.118 78.3682 221.554 78.9972 221.554Z" fill="#FEFEFE"/>
<path d="M249.825 221.554C250.454 221.554 250.963 221.118 250.963 220.58C250.963 220.043 250.454 219.607 249.825 219.607C249.196 219.607 248.686 220.043 248.686 220.58C248.686 221.118 249.196 221.554 249.825 221.554Z" fill="#FEFEFE"/>
<path d="M420.651 221.554C421.28 221.554 421.789 221.118 421.789 220.58C421.789 220.043 421.28 219.607 420.651 219.607C420.022 219.607 419.512 220.043 419.512 220.58C419.512 221.118 420.022 221.554 420.651 221.554Z" fill="#FEFEFE"/>
<path d="M591.475 221.554C592.104 221.554 592.614 221.118 592.614 220.58C592.614 220.043 592.104 219.607 591.475 219.607C590.846 219.607 590.336 220.043 590.336 220.58C590.336 221.118 590.846 221.554 591.475 221.554Z" fill="#FEFEFE"/>
<path d="M762.303 221.554C762.932 221.554 763.442 221.118 763.442 220.58C763.442 220.043 762.932 219.607 762.303 219.607C761.674 219.607 761.164 220.043 761.164 220.58C761.164 221.118 761.674 221.554 762.303 221.554Z" fill="#FEFEFE"/>
<path d="M933.132 221.554C933.761 221.554 934.27 221.118 934.27 220.58C934.27 220.043 933.761 219.607 933.132 219.607C932.503 219.607 931.993 220.043 931.993 220.58C931.993 221.118 932.503 221.554 933.132 221.554Z" fill="#FEFEFE"/>
<path d="M1103.95 221.554C1104.58 221.554 1105.09 221.118 1105.09 220.58C1105.09 220.043 1104.58 219.607 1103.95 219.607C1103.32 219.607 1102.81 220.043 1102.81 220.58C1102.81 221.118 1103.32 221.554 1103.95 221.554Z" fill="#FEFEFE"/>
<path d="M-0.719952 326.667C-0.0909512 326.667 0.41894 326.231 0.41894 325.694C0.41894 325.156 -0.0909512 324.72 -0.719952 324.72C-1.34895 324.72 -1.85889 325.156 -1.85889 325.694C-1.85889 326.231 -1.34895 326.667 -0.719952 326.667Z" fill="#FEFEFE"/>
<path d="M170.105 326.667C170.734 326.667 171.244 326.231 171.244 325.694C171.244 325.156 170.734 324.72 170.105 324.72C169.476 324.72 168.966 325.156 168.966 325.694C168.966 326.231 169.476 326.667 170.105 326.667Z" fill="#FEFEFE"/>
<path d="M340.931 326.667C341.56 326.667 342.07 326.231 342.07 325.694C342.07 325.156 341.56 324.72 340.931 324.72C340.302 324.72 339.792 325.156 339.792 325.694C339.792 326.231 340.302 326.667 340.931 326.667Z" fill="#FEFEFE"/>
<path d="M511.758 326.667C512.387 326.667 512.897 326.231 512.897 325.694C512.897 325.156 512.387 324.72 511.758 324.72C511.129 324.72 510.619 325.156 510.619 325.694C510.619 326.231 511.129 326.667 511.758 326.667Z" fill="#FEFEFE"/>
<path d="M682.584 326.667C683.213 326.667 683.723 326.231 683.723 325.694C683.723 325.156 683.213 324.72 682.584 324.72C681.955 324.72 681.445 325.156 681.445 325.694C681.445 326.231 681.955 326.667 682.584 326.667Z" fill="#FEFEFE"/>
<path d="M853.406 326.667C854.035 326.667 854.545 326.231 854.545 325.694C854.545 325.156 854.035 324.72 853.406 324.72C852.777 324.72 852.267 325.156 852.267 325.694C852.267 326.231 852.777 326.667 853.406 326.667Z" fill="#FEFEFE"/>
<path d="M1024.24 326.667C1024.87 326.667 1025.38 326.231 1025.38 325.694C1025.38 325.156 1024.87 324.72 1024.24 324.72C1023.61 324.72 1023.1 325.156 1023.1 325.694C1023.1 326.231 1023.61 326.667 1024.24 326.667Z" fill="#FEFEFE"/>
<path d="M101.775 433.711C102.404 433.711 102.914 433.276 102.914 432.738C102.914 432.201 102.404 431.765 101.775 431.765C101.146 431.765 100.636 432.201 100.636 432.738C100.636 433.276 101.146 433.711 101.775 433.711Z" fill="#FEFEFE"/>
<path d="M272.6 433.711C273.229 433.711 273.739 433.276 273.739 432.738C273.739 432.201 273.229 431.765 272.6 431.765C271.971 431.765 271.461 432.201 271.461 432.738C271.461 433.276 271.971 433.711 272.6 433.711Z" fill="#FEFEFE"/>
<path d="M443.427 433.711C444.056 433.711 444.566 433.276 444.566 432.738C444.566 432.201 444.056 431.765 443.427 431.765C442.798 431.765 442.288 432.201 442.288 432.738C442.288 433.276 442.798 433.711 443.427 433.711Z" fill="#FEFEFE"/>
<path d="M614.253 433.711C614.882 433.711 615.392 433.276 615.392 432.738C615.392 432.201 614.882 431.765 614.253 431.765C613.624 431.765 613.114 432.201 613.114 432.738C613.114 433.276 613.624 433.711 614.253 433.711Z" fill="#FEFEFE"/>
<path d="M785.079 433.711C785.708 433.711 786.218 433.276 786.218 432.738C786.218 432.201 785.708 431.765 785.079 431.765C784.45 431.765 783.94 432.201 783.94 432.738C783.94 433.276 784.45 433.711 785.079 433.711Z" fill="#FEFEFE"/>
<path d="M955.898 433.711C956.527 433.711 957.037 433.276 957.037 432.738C957.037 432.201 956.527 431.765 955.898 431.765C955.269 431.765 954.759 432.201 954.759 432.738C954.759 433.276 955.269 433.711 955.898 433.711Z" fill="#FEFEFE"/>
<path d="M1126.73 433.711C1127.36 433.711 1127.87 433.276 1127.87 432.738C1127.87 432.201 1127.36 431.765 1126.73 431.765C1126.1 431.765 1125.59 432.201 1125.59 432.738C1125.59 433.276 1126.1 433.711 1126.73 433.711Z" fill="#FEFEFE"/>
<path d="M33.4441 540.78C34.0731 540.78 34.583 540.344 34.583 539.807C34.583 539.269 34.0731 538.833 33.4441 538.833C32.8151 538.833 32.3053 539.269 32.3053 539.807C32.3053 540.344 32.8151 540.78 33.4441 540.78Z" fill="#FEFEFE"/>
<path d="M204.27 540.78C204.899 540.78 205.409 540.344 205.409 539.807C205.409 539.269 204.899 538.833 204.27 538.833C203.641 538.833 203.131 539.269 203.131 539.807C203.131 540.344 203.641 540.78 204.27 540.78Z" fill="#FEFEFE"/>
<path d="M375.096 540.78C375.725 540.78 376.235 540.344 376.235 539.807C376.235 539.269 375.725 538.833 375.096 538.833C374.467 538.833 373.957 539.269 373.957 539.807C373.957 540.344 374.467 540.78 375.096 540.78Z" fill="#FEFEFE"/>
<path d="M545.922 540.78C546.551 540.78 547.061 540.344 547.061 539.807C547.061 539.269 546.551 538.833 545.922 538.833C545.293 538.833 544.783 539.269 544.783 539.807C544.783 540.344 545.293 540.78 545.922 540.78Z" fill="#FEFEFE"/>
<path d="M716.748 540.78C717.377 540.78 717.887 540.344 717.887 539.807C717.887 539.269 717.377 538.833 716.748 538.833C716.119 538.833 715.609 539.269 715.609 539.807C715.609 540.344 716.119 540.78 716.748 540.78Z" fill="#FEFEFE"/>
<path d="M887.57 540.78C888.199 540.78 888.709 540.344 888.709 539.807C888.709 539.269 888.199 538.833 887.57 538.833C886.941 538.833 886.431 539.269 886.431 539.807C886.431 540.344 886.941 540.78 887.57 540.78Z" fill="#FEFEFE"/>
<path d="M1058.4 540.78C1059.03 540.78 1059.54 540.344 1059.54 539.807C1059.54 539.269 1059.03 538.833 1058.4 538.833C1057.78 538.833 1057.27 539.269 1057.27 539.807C1057.27 540.344 1057.78 540.78 1058.4 540.78Z" fill="#FEFEFE"/>
<path d="M101.775 647.824C102.404 647.824 102.914 647.389 102.914 646.851C102.914 646.314 102.404 645.878 101.775 645.878C101.146 645.878 100.636 646.314 100.636 646.851C100.636 647.389 101.146 647.824 101.775 647.824Z" fill="#FEFEFE"/>
<path d="M272.6 647.824C273.229 647.824 273.739 647.389 273.739 646.851C273.739 646.314 273.229 645.878 272.6 645.878C271.971 645.878 271.461 646.314 271.461 646.851C271.461 647.389 271.971 647.824 272.6 647.824Z" fill="#FEFEFE"/>
<path d="M443.427 647.824C444.056 647.824 444.566 647.389 444.566 646.851C444.566 646.314 444.056 645.878 443.427 645.878C442.798 645.878 442.288 646.314 442.288 646.851C442.288 647.389 442.798 647.824 443.427 647.824Z" fill="#FEFEFE"/>
<path d="M614.253 647.824C614.882 647.824 615.392 647.389 615.392 646.851C615.392 646.314 614.882 645.878 614.253 645.878C613.624 645.878 613.114 646.314 613.114 646.851C613.114 647.389 613.624 647.824 614.253 647.824Z" fill="#FEFEFE"/>
<path d="M785.079 647.824C785.708 647.824 786.218 647.389 786.218 646.851C786.218 646.314 785.708 645.878 785.079 645.878C784.45 645.878 783.94 646.314 783.94 646.851C783.94 647.389 784.45 647.824 785.079 647.824Z" fill="#FEFEFE"/>
<path d="M955.898 647.824C956.527 647.824 957.037 647.389 957.037 646.851C957.037 646.314 956.527 645.878 955.898 645.878C955.269 645.878 954.759 646.314 954.759 646.851C954.759 647.389 955.269 647.824 955.898 647.824Z" fill="#FEFEFE"/>
<path d="M1126.73 647.824C1127.36 647.824 1127.87 647.389 1127.87 646.851C1127.87 646.314 1127.36 645.878 1126.73 645.878C1126.1 645.878 1125.59 646.314 1125.59 646.851C1125.59 647.389 1126.1 647.824 1126.73 647.824Z" fill="#FEFEFE"/>
<path d="M106.33 9.37913C107.588 9.37913 108.608 8.50761 108.608 7.43257C108.608 6.35753 107.588 5.48608 106.33 5.48608C105.072 5.48608 104.052 6.35753 104.052 7.43257C104.052 8.50761 105.072 9.37913 106.33 9.37913Z" fill="#FEFEFE"/>
<path d="M235.019 194.308C236.277 194.308 237.297 193.437 237.297 192.362C237.297 191.287 236.277 190.415 235.019 190.415C233.761 190.415 232.742 191.287 232.742 192.362C232.742 193.437 233.761 194.308 235.019 194.308Z" fill="#FEFEFE"/>
<path d="M576.671 184.568C577.929 184.568 578.949 183.696 578.949 182.621C578.949 181.546 577.929 180.675 576.671 180.675C575.413 180.675 574.394 181.546 574.394 182.621C574.394 183.696 575.413 184.568 576.671 184.568Z" fill="#FEFEFE"/>
<path d="M918.316 194.308C919.574 194.308 920.594 193.437 920.594 192.362C920.594 191.287 919.574 190.415 918.316 190.415C917.059 190.415 916.039 191.287 916.039 192.362C916.039 193.437 917.059 194.308 918.316 194.308Z" fill="#FEFEFE"/>
<path d="M1259.97 202.093C1261.23 202.093 1262.25 201.221 1262.25 200.146C1262.25 199.071 1261.23 198.2 1259.97 198.2C1258.71 198.2 1257.69 199.071 1257.69 200.146C1257.69 201.221 1258.71 202.093 1259.97 202.093Z" fill="#FEFEFE"/>
<path d="M261.212 361.7C262.47 361.7 263.49 360.829 263.49 359.754C263.49 358.679 262.47 357.807 261.212 357.807C259.954 357.807 258.935 358.679 258.935 359.754C258.935 360.829 259.954 361.7 261.212 361.7Z" fill="#FEFEFE"/>
<path d="M602.864 351.972C604.122 351.972 605.142 351.101 605.142 350.026C605.142 348.951 604.122 348.079 602.864 348.079C601.606 348.079 600.587 348.951 600.587 350.026C600.587 351.101 601.606 351.972 602.864 351.972Z" fill="#FEFEFE"/>
<path d="M944.515 361.7C945.773 361.7 946.793 360.829 946.793 359.754C946.793 358.679 945.773 357.807 944.515 357.807C943.257 357.807 942.237 358.679 942.237 359.754C942.237 360.829 943.257 361.7 944.515 361.7Z" fill="#FEFEFE"/>
<path d="M1286.17 371.428C1287.43 371.428 1288.45 370.557 1288.45 369.482C1288.45 368.407 1287.43 367.535 1286.17 367.535C1284.91 367.535 1283.89 368.407 1283.89 369.482C1283.89 370.557 1284.91 371.428 1286.17 371.428Z" fill="#FEFEFE"/>
<path d="M2.69513 579.7C3.95303 579.7 4.97275 578.828 4.97275 577.753C4.97275 576.678 3.95303 575.807 2.69513 575.807C1.43724 575.807 0.41748 576.678 0.41748 577.753C0.41748 578.828 1.43724 579.7 2.69513 579.7Z" fill="#FEFEFE"/>
<path d="M344.347 569.972C345.605 569.972 346.625 569.1 346.625 568.025C346.625 566.95 345.605 566.079 344.347 566.079C343.089 566.079 342.069 566.95 342.069 568.025C342.069 569.1 343.089 569.972 344.347 569.972Z" fill="#FEFEFE"/>
<path d="M685.999 560.232C687.257 560.232 688.277 559.36 688.277 558.285C688.277 557.21 687.257 556.339 685.999 556.339C684.741 556.339 683.722 557.21 683.722 558.285C683.722 559.36 684.741 560.232 685.999 560.232Z" fill="#FEFEFE"/>
<path d="M1027.66 569.972C1028.92 569.972 1029.94 569.1 1029.94 568.025C1029.94 566.95 1028.92 566.079 1027.66 566.079C1026.4 566.079 1025.38 566.95 1025.38 568.025C1025.38 569.1 1026.4 569.972 1027.66 569.972Z" fill="#FEFEFE"/>
<path d="M1369.3 579.7C1370.56 579.7 1371.58 578.828 1371.58 577.753C1371.58 576.678 1370.56 575.807 1369.3 575.807C1368.04 575.807 1367.02 576.678 1367.02 577.753C1367.02 578.828 1368.04 579.7 1369.3 579.7Z" fill="#FEFEFE"/>
<path d="M288.545 106.708C289.803 106.708 290.823 105.836 290.823 104.761C290.823 103.686 289.803 102.815 288.545 102.815C287.287 102.815 286.267 103.686 286.267 104.761C286.267 105.836 287.287 106.708 288.545 106.708Z" fill="#FEFEFE"/>
<path d="M630.197 96.9795C631.455 96.9795 632.475 96.1081 632.475 95.0331C632.475 93.9581 631.455 93.0867 630.197 93.0867C628.939 93.0867 627.919 93.9581 627.919 95.0331C627.919 96.1081 628.939 96.9795 630.197 96.9795Z" fill="#FEFEFE"/>
<path d="M971.843 106.708C973.101 106.708 974.121 105.836 974.121 104.761C974.121 103.686 973.101 102.815 971.843 102.815C970.585 102.815 969.566 103.686 969.566 104.761C969.566 105.836 970.585 106.708 971.843 106.708Z" fill="#FEFEFE"/>
<path d="M1313.5 114.492C1314.76 114.492 1315.78 113.621 1315.78 112.546C1315.78 111.471 1314.76 110.6 1313.5 110.6C1312.24 110.6 1311.22 111.471 1311.22 112.546C1311.22 113.621 1312.24 114.492 1313.5 114.492Z" fill="#FEFEFE"/>
<path d="M75.5821 299.41C76.8401 299.41 77.8599 298.538 77.8599 297.463C77.8599 296.388 76.8401 295.517 75.5821 295.517C74.3242 295.517 73.3044 296.388 73.3044 297.463C73.3044 298.538 74.3242 299.41 75.5821 299.41Z" fill="#FEFEFE"/>
<path d="M417.234 289.681C418.492 289.681 419.512 288.81 419.512 287.735C419.512 286.66 418.492 285.788 417.234 285.788C415.976 285.788 414.956 286.66 414.956 287.735C414.956 288.81 415.976 289.681 417.234 289.681Z" fill="#FEFEFE"/>
<path d="M758.886 299.41C760.144 299.41 761.164 298.538 761.164 297.463C761.164 296.388 760.144 295.517 758.886 295.517C757.628 295.517 756.609 296.388 756.609 297.463C756.609 298.538 757.628 299.41 758.886 299.41Z" fill="#FEFEFE"/>
<path d="M1100.53 309.137C1101.79 309.137 1102.81 308.266 1102.81 307.191C1102.81 306.116 1101.79 305.245 1100.53 305.245C1099.28 305.245 1098.26 306.116 1098.26 307.191C1098.26 308.266 1099.28 309.137 1100.53 309.137Z" fill="#FEFEFE"/>
<path d="M101.775 468.745C103.033 468.745 104.053 467.873 104.053 466.798C104.053 465.723 103.033 464.852 101.775 464.852C100.517 464.852 99.4974 465.723 99.4974 466.798C99.4974 467.873 100.517 468.745 101.775 468.745Z" fill="#FEFEFE"/>
<path d="M443.427 459.017C444.685 459.017 445.705 458.145 445.705 457.07C445.705 455.995 444.685 455.124 443.427 455.124C442.169 455.124 441.149 455.995 441.149 457.07C441.149 458.145 442.169 459.017 443.427 459.017Z" fill="#FEFEFE"/>
<path d="M785.079 468.745C786.337 468.745 787.357 467.873 787.357 466.798C787.357 465.723 786.337 464.852 785.079 464.852C783.821 464.852 782.802 465.723 782.802 466.798C782.802 467.873 783.821 468.745 785.079 468.745Z" fill="#FEFEFE"/>
<path d="M1126.73 478.485C1127.99 478.485 1129.01 477.613 1129.01 476.538C1129.01 475.463 1127.99 474.592 1126.73 474.592C1125.47 474.592 1124.45 475.463 1124.45 476.538C1124.45 477.613 1125.47 478.485 1126.73 478.485Z" fill="#FEFEFE"/>
<path d="M184.91 677.028C186.168 677.028 187.188 676.157 187.188 675.082C187.188 674.007 186.168 673.135 184.91 673.135C183.652 673.135 182.632 674.007 182.632 675.082C182.632 676.157 183.652 677.028 184.91 677.028Z" fill="#FEFEFE"/>
<path d="M526.562 667.288C527.82 667.288 528.84 666.417 528.84 665.342C528.84 664.267 527.82 663.395 526.562 663.395C525.304 663.395 524.285 664.267 524.285 665.342C524.285 666.417 525.304 667.288 526.562 667.288Z" fill="#FEFEFE"/>
<path d="M868.221 677.028C869.479 677.028 870.499 676.157 870.499 675.082C870.499 674.007 869.479 673.135 868.221 673.135C866.963 673.135 865.944 674.007 865.944 675.082C865.944 676.157 866.963 677.028 868.221 677.028Z" fill="#FEFEFE"/>
<path d="M1209.86 686.756C1211.12 686.756 1212.14 685.885 1212.14 684.81C1212.14 683.735 1211.12 682.863 1209.86 682.863C1208.6 682.863 1207.58 683.735 1207.58 684.81C1207.58 685.885 1208.6 686.756 1209.86 686.756Z" fill="#FEFEFE"/>
</g>
<g opacity="0.5">
<path d="M832.548 69.8327C833.177 69.8327 833.687 69.3969 833.687 68.8594C833.687 68.3219 833.177 67.8861 832.548 67.8861C831.919 67.8861 831.409 68.3219 831.409 68.8594C831.409 69.3969 831.919 69.8327 832.548 69.8327Z" fill="#FEFEFE"/>
<path d="M1003.37 69.8327C1004 69.8327 1004.51 69.3969 1004.51 68.8594C1004.51 68.3219 1004 67.8861 1003.37 67.8861C1002.74 67.8861 1002.24 68.3219 1002.24 68.8594C1002.24 69.3969 1002.74 69.8327 1003.37 69.8327Z" fill="#FEFEFE"/>
<path d="M1174.2 69.8327C1174.83 69.8327 1175.34 69.3969 1175.34 68.8594C1175.34 68.3219 1174.83 67.8861 1174.2 67.8861C1173.57 67.8861 1173.06 68.3219 1173.06 68.8594C1173.06 69.3969 1173.57 69.8327 1174.2 69.8327Z" fill="#FEFEFE"/>
<path d="M1345.02 69.8327C1345.65 69.8327 1346.16 69.3969 1346.16 68.8594C1346.16 68.3219 1345.65 67.8861 1345.02 67.8861C1344.4 67.8861 1343.89 68.3219 1343.89 68.8594C1343.89 69.3969 1344.4 69.8327 1345.02 69.8327Z" fill="#FEFEFE"/>
<path d="M764.217 176.889C764.846 176.889 765.356 176.453 765.356 175.916C765.356 175.378 764.846 174.943 764.217 174.943C763.588 174.943 763.078 175.378 763.078 175.916C763.078 176.453 763.588 176.889 764.217 176.889Z" fill="#FEFEFE"/>
<path d="M935.043 176.889C935.672 176.889 936.182 176.453 936.182 175.916C936.182 175.378 935.672 174.943 935.043 174.943C934.414 174.943 933.904 175.378 933.904 175.916C933.904 176.453 934.414 176.889 935.043 176.889Z" fill="#FEFEFE"/>
<path d="M1105.87 176.889C1106.5 176.889 1107.01 176.453 1107.01 175.916C1107.01 175.378 1106.5 174.943 1105.87 174.943C1105.24 174.943 1104.73 175.378 1104.73 175.916C1104.73 176.453 1105.24 176.889 1105.87 176.889Z" fill="#FEFEFE"/>
<path d="M1276.69 176.889C1277.32 176.889 1277.83 176.453 1277.83 175.916C1277.83 175.378 1277.32 174.943 1276.69 174.943C1276.07 174.943 1275.56 175.378 1275.56 175.916C1275.56 176.453 1276.07 176.889 1276.69 176.889Z" fill="#FEFEFE"/>
<path d="M855.323 282.003C855.952 282.003 856.462 281.567 856.462 281.029C856.462 280.492 855.952 280.056 855.323 280.056C854.694 280.056 854.184 280.492 854.184 281.029C854.184 281.567 854.694 282.003 855.323 282.003Z" fill="#FEFEFE"/>
<path d="M1026.15 282.003C1026.78 282.003 1027.29 281.567 1027.29 281.029C1027.29 280.492 1026.78 280.056 1026.15 280.056C1025.52 280.056 1025.01 280.492 1025.01 281.029C1025.01 281.567 1025.52 282.003 1026.15 282.003Z" fill="#FEFEFE"/>
<path d="M1196.98 282.003C1197.61 282.003 1198.12 281.567 1198.12 281.029C1198.12 280.492 1197.61 280.056 1196.98 280.056C1196.35 280.056 1195.84 280.492 1195.84 281.029C1195.84 281.567 1196.35 282.003 1196.98 282.003Z" fill="#FEFEFE"/>
<path d="M1367.8 282.003C1368.43 282.003 1368.94 281.567 1368.94 281.029C1368.94 280.492 1368.43 280.056 1367.8 280.056C1367.17 280.056 1366.66 280.492 1366.66 281.029C1366.66 281.567 1367.17 282.003 1367.8 282.003Z" fill="#FEFEFE"/>
<path d="M786.993 389.047C787.622 389.047 788.132 388.611 788.132 388.074C788.132 387.536 787.622 387.1 786.993 387.1C786.364 387.1 785.855 387.536 785.855 388.074C785.855 388.611 786.364 389.047 786.993 389.047Z" fill="#FEFEFE"/>
<path d="M957.819 389.047C958.448 389.047 958.958 388.611 958.958 388.074C958.958 387.536 958.448 387.1 957.819 387.1C957.19 387.1 956.681 387.536 956.681 388.074C956.681 388.611 957.19 389.047 957.819 389.047Z" fill="#FEFEFE"/>
<path d="M1128.65 389.047C1129.27 389.047 1129.78 388.611 1129.78 388.074C1129.78 387.536 1129.27 387.1 1128.65 387.1C1128.02 387.1 1127.51 387.536 1127.51 388.074C1127.51 388.611 1128.02 389.047 1128.65 389.047Z" fill="#FEFEFE"/>
<path d="M1299.47 389.047C1300.1 389.047 1300.61 388.611 1300.61 388.074C1300.61 387.536 1300.1 387.1 1299.47 387.1C1298.84 387.1 1298.33 387.536 1298.33 388.074C1298.33 388.611 1298.84 389.047 1299.47 389.047Z" fill="#FEFEFE"/>
<path d="M718.662 496.116C719.291 496.116 719.801 495.68 719.801 495.142C719.801 494.605 719.291 494.169 718.662 494.169C718.033 494.169 717.524 494.605 717.524 495.142C717.524 495.68 718.033 496.116 718.662 496.116Z" fill="#FEFEFE"/>
<path d="M889.49 496.116C890.119 496.116 890.629 495.68 890.629 495.142C890.629 494.605 890.119 494.169 889.49 494.169C888.861 494.169 888.351 494.605 888.351 495.142C888.351 495.68 888.861 496.116 889.49 496.116Z" fill="#FEFEFE"/>
<path d="M1060.31 496.116C1060.94 496.116 1061.45 495.68 1061.45 495.142C1061.45 494.605 1060.94 494.169 1060.31 494.169C1059.69 494.169 1059.18 494.605 1059.18 495.142C1059.18 495.68 1059.69 496.116 1060.31 496.116Z" fill="#FEFEFE"/>
<path d="M1231.14 496.116C1231.77 496.116 1232.28 495.68 1232.28 495.142C1232.28 494.605 1231.77 494.169 1231.14 494.169C1230.51 494.169 1230 494.605 1230 495.142C1230 495.68 1230.51 496.116 1231.14 496.116Z" fill="#FEFEFE"/>
<path d="M1401.97 496.116C1402.6 496.116 1403.11 495.68 1403.11 495.142C1403.11 494.605 1402.6 494.169 1401.97 494.169C1401.34 494.169 1400.83 494.605 1400.83 495.142C1400.83 495.68 1401.34 496.116 1401.97 496.116Z" fill="#FEFEFE"/>
<path d="M786.993 603.16C787.622 603.16 788.132 602.724 788.132 602.187C788.132 601.649 787.622 601.214 786.993 601.214C786.364 601.214 785.855 601.649 785.855 602.187C785.855 602.724 786.364 603.16 786.993 603.16Z" fill="#FEFEFE"/>
<path d="M957.819 603.16C958.448 603.16 958.958 602.724 958.958 602.187C958.958 601.649 958.448 601.214 957.819 601.214C957.19 601.214 956.681 601.649 956.681 602.187C956.681 602.724 957.19 603.16 957.819 603.16Z" fill="#FEFEFE"/>
<path d="M1128.65 603.16C1129.27 603.16 1129.78 602.724 1129.78 602.187C1129.78 601.649 1129.27 601.214 1128.65 601.214C1128.02 601.214 1127.51 601.649 1127.51 602.187C1127.51 602.724 1128.02 603.16 1128.65 603.16Z" fill="#FEFEFE"/>
<path d="M1299.47 603.16C1300.1 603.16 1300.61 602.724 1300.61 602.187C1300.61 601.649 1300.1 601.214 1299.47 601.214C1298.84 601.214 1298.33 601.649 1298.33 602.187C1298.33 602.724 1298.84 603.16 1299.47 603.16Z" fill="#FEFEFE"/>
<path d="M741.44 700.501C742.069 700.501 742.579 700.065 742.579 699.527C742.579 698.99 742.069 698.554 741.44 698.554C740.811 698.554 740.302 698.99 740.302 699.527C740.302 700.065 740.811 700.501 741.44 700.501Z" fill="#FEFEFE"/>
<path d="M912.265 700.501C912.894 700.501 913.404 700.065 913.404 699.527C913.404 698.99 912.894 698.554 912.265 698.554C911.636 698.554 911.126 698.99 911.126 699.527C911.126 700.065 911.636 700.501 912.265 700.501Z" fill="#FEFEFE"/>
<path d="M1083.09 700.501C1083.72 700.501 1084.23 700.065 1084.23 699.527C1084.23 698.99 1083.72 698.554 1083.09 698.554C1082.46 698.554 1081.95 698.99 1081.95 699.527C1081.95 700.065 1082.46 700.501 1083.09 700.501Z" fill="#FEFEFE"/>
<path d="M1253.92 700.501C1254.55 700.501 1255.06 700.065 1255.06 699.527C1255.06 698.99 1254.55 698.554 1253.92 698.554C1253.29 698.554 1252.78 698.99 1252.78 699.527C1252.78 700.065 1253.29 700.501 1253.92 700.501Z" fill="#FEFEFE"/>
<path d="M1424.74 700.501C1425.37 700.501 1425.88 700.065 1425.88 699.527C1425.88 698.99 1425.37 698.554 1424.74 698.554C1424.11 698.554 1423.6 698.99 1423.6 699.527C1423.6 700.065 1424.11 700.501 1424.74 700.501Z" fill="#FEFEFE"/>
<path d="M889.49 79.5728C890.119 79.5728 890.629 79.137 890.629 78.5995C890.629 78.062 890.119 77.6263 889.49 77.6263C888.861 77.6263 888.351 78.062 888.351 78.5995C888.351 79.137 888.861 79.5728 889.49 79.5728Z" fill="#FEFEFE"/>
<path d="M1060.32 79.5728C1060.94 79.5728 1061.45 79.137 1061.45 78.5995C1061.45 78.062 1060.94 77.6263 1060.32 77.6263C1059.69 77.6263 1059.18 78.062 1059.18 78.5995C1059.18 79.137 1059.69 79.5728 1060.32 79.5728Z" fill="#FEFEFE"/>
<path d="M1231.14 79.5728C1231.77 79.5728 1232.28 79.137 1232.28 78.5995C1232.28 78.062 1231.77 77.6263 1231.14 77.6263C1230.51 77.6263 1230 78.062 1230 78.5995C1230 79.137 1230.51 79.5728 1231.14 79.5728Z" fill="#FEFEFE"/>
<path d="M1401.97 79.5728C1402.6 79.5728 1403.11 79.137 1403.11 78.5995C1403.11 78.062 1402.6 77.6263 1401.97 77.6263C1401.34 77.6263 1400.83 78.062 1400.83 78.5995C1400.83 79.137 1401.34 79.5728 1401.97 79.5728Z" fill="#FEFEFE"/>
<path d="M821.159 186.617C821.788 186.617 822.298 186.181 822.298 185.644C822.298 185.106 821.788 184.671 821.159 184.671C820.53 184.671 820.02 185.106 820.02 185.644C820.02 186.181 820.53 186.617 821.159 186.617Z" fill="#FEFEFE"/>
<path d="M991.985 186.617C992.614 186.617 993.124 186.181 993.124 185.644C993.124 185.106 992.614 184.671 991.985 184.671C991.356 184.671 990.846 185.106 990.846 185.644C990.846 186.181 991.356 186.617 991.985 186.617Z" fill="#FEFEFE"/>
<path d="M1162.81 186.617C1163.44 186.617 1163.95 186.181 1163.95 185.644C1163.95 185.106 1163.44 184.671 1162.81 184.671C1162.18 184.671 1161.67 185.106 1161.67 185.644C1161.67 186.181 1162.18 186.617 1162.81 186.617Z" fill="#FEFEFE"/>
<path d="M1333.64 186.617C1334.27 186.617 1334.78 186.181 1334.78 185.644C1334.78 185.106 1334.27 184.671 1333.64 184.671C1333.01 184.671 1332.5 185.106 1332.5 185.644C1332.5 186.181 1333.01 186.617 1333.64 186.617Z" fill="#FEFEFE"/>
<path d="M912.265 291.731C912.894 291.731 913.404 291.295 913.404 290.757C913.404 290.22 912.894 289.784 912.265 289.784C911.636 289.784 911.126 290.22 911.126 290.757C911.126 291.295 911.636 291.731 912.265 291.731Z" fill="#FEFEFE"/>
<path d="M1083.09 291.731C1083.72 291.731 1084.23 291.295 1084.23 290.757C1084.23 290.22 1083.72 289.784 1083.09 289.784C1082.46 289.784 1081.95 290.22 1081.95 290.757C1081.95 291.295 1082.46 291.731 1083.09 291.731Z" fill="#FEFEFE"/>
<path d="M1253.92 291.731C1254.55 291.731 1255.06 291.295 1255.06 290.757C1255.06 290.22 1254.55 289.784 1253.92 289.784C1253.29 289.784 1252.78 290.22 1252.78 290.757C1252.78 291.295 1253.29 291.731 1253.92 291.731Z" fill="#FEFEFE"/>
<path d="M1424.74 291.731C1425.37 291.731 1425.88 291.295 1425.88 290.757C1425.88 290.22 1425.37 289.784 1424.74 289.784C1424.12 289.784 1423.61 290.22 1423.61 290.757C1423.61 291.295 1424.12 291.731 1424.74 291.731Z" fill="#FEFEFE"/>
<path d="M843.935 398.787C844.564 398.787 845.074 398.351 845.074 397.814C845.074 397.276 844.564 396.841 843.935 396.841C843.306 396.841 842.797 397.276 842.797 397.814C842.797 398.351 843.306 398.787 843.935 398.787Z" fill="#FEFEFE"/>
<path d="M1014.76 398.787C1015.39 398.787 1015.9 398.351 1015.9 397.814C1015.9 397.276 1015.39 396.841 1014.76 396.841C1014.13 396.841 1013.62 397.276 1013.62 397.814C1013.62 398.351 1014.13 398.787 1014.76 398.787Z" fill="#FEFEFE"/>
<path d="M1185.59 398.787C1186.22 398.787 1186.73 398.351 1186.73 397.814C1186.73 397.276 1186.22 396.841 1185.59 396.841C1184.96 396.841 1184.45 397.276 1184.45 397.814C1184.45 398.351 1184.96 398.787 1185.59 398.787Z" fill="#FEFEFE"/>
<path d="M1356.41 398.787C1357.04 398.787 1357.55 398.351 1357.55 397.814C1357.55 397.276 1357.04 396.841 1356.41 396.841C1355.78 396.841 1355.27 397.276 1355.27 397.814C1355.27 398.351 1355.78 398.787 1356.41 398.787Z" fill="#FEFEFE"/>
<path d="M775.606 505.844C776.235 505.844 776.745 505.408 776.745 504.87C776.745 504.333 776.235 503.897 775.606 503.897C774.977 503.897 774.467 504.333 774.467 504.87C774.467 505.408 774.977 505.844 775.606 505.844Z" fill="#FEFEFE"/>
<path d="M946.432 505.844C947.061 505.844 947.571 505.408 947.571 504.87C947.571 504.333 947.061 503.897 946.432 503.897C945.803 503.897 945.293 504.333 945.293 504.87C945.293 505.408 945.803 505.844 946.432 505.844Z" fill="#FEFEFE"/>
<path d="M1117.26 505.844C1117.89 505.844 1118.4 505.408 1118.4 504.87C1118.4 504.333 1117.89 503.897 1117.26 503.897C1116.63 503.897 1116.12 504.333 1116.12 504.87C1116.12 505.408 1116.63 505.844 1117.26 505.844Z" fill="#FEFEFE"/>
<path d="M1288.08 505.844C1288.71 505.844 1289.22 505.408 1289.22 504.87C1289.22 504.333 1288.71 503.897 1288.08 503.897C1287.45 503.897 1286.95 504.333 1286.95 504.87C1286.95 505.408 1287.45 505.844 1288.08 505.844Z" fill="#FEFEFE"/>
<path d="M843.935 612.9C844.564 612.9 845.074 612.464 845.074 611.927C845.074 611.39 844.564 610.954 843.935 610.954C843.306 610.954 842.797 611.39 842.797 611.927C842.797 612.464 843.306 612.9 843.935 612.9Z" fill="#FEFEFE"/>
<path d="M1014.76 612.9C1015.39 612.9 1015.9 612.464 1015.9 611.927C1015.9 611.39 1015.39 610.954 1014.76 610.954C1014.13 610.954 1013.62 611.39 1013.62 611.927C1013.62 612.464 1014.13 612.9 1014.76 612.9Z" fill="#FEFEFE"/>
<path d="M1185.59 612.9C1186.22 612.9 1186.73 612.464 1186.73 611.927C1186.73 611.39 1186.22 610.954 1185.59 610.954C1184.96 610.954 1184.45 611.39 1184.45 611.927C1184.45 612.464 1184.96 612.9 1185.59 612.9Z" fill="#FEFEFE"/>
<path d="M1356.41 612.9C1357.04 612.9 1357.55 612.464 1357.55 611.927C1357.55 611.39 1357.04 610.954 1356.41 610.954C1355.78 610.954 1355.27 611.39 1355.27 611.927C1355.27 612.464 1355.78 612.9 1356.41 612.9Z" fill="#FEFEFE"/>
<path d="M798.382 710.229C799.011 710.229 799.521 709.793 799.521 709.255C799.521 708.718 799.011 708.282 798.382 708.282C797.753 708.282 797.244 708.718 797.244 709.255C797.244 709.793 797.753 710.229 798.382 710.229Z" fill="#FEFEFE"/>
<path d="M969.208 710.229C969.837 710.229 970.347 709.793 970.347 709.255C970.347 708.718 969.837 708.282 969.208 708.282C968.579 708.282 968.07 708.718 968.07 709.255C968.07 709.793 968.579 710.229 969.208 710.229Z" fill="#FEFEFE"/>
<path d="M1140.03 710.229C1140.66 710.229 1141.17 709.793 1141.17 709.255C1141.17 708.718 1140.66 708.282 1140.03 708.282C1139.41 708.282 1138.9 708.718 1138.9 709.255C1138.9 709.793 1139.41 710.229 1140.03 710.229Z" fill="#FEFEFE"/>
<path d="M1310.86 710.229C1311.49 710.229 1312 709.793 1312 709.255C1312 708.718 1311.49 708.282 1310.86 708.282C1310.23 708.282 1309.72 708.718 1309.72 709.255C1309.72 709.793 1310.23 710.229 1310.86 710.229Z" fill="#FEFEFE"/>
<path d="M689.053 11.4403C689.682 11.4403 690.192 11.0046 690.192 10.4671C690.192 9.92953 689.682 9.49377 689.053 9.49377C688.424 9.49377 687.914 9.92953 687.914 10.4671C687.914 11.0046 688.424 11.4403 689.053 11.4403Z" fill="#FEFEFE"/>
<path d="M859.879 11.4403C860.508 11.4403 861.018 11.0046 861.018 10.4671C861.018 9.92953 860.508 9.49377 859.879 9.49377C859.25 9.49377 858.74 9.92953 858.74 10.4671C858.74 11.0046 859.25 11.4403 859.879 11.4403Z" fill="#FEFEFE"/>
<path d="M1030.71 11.4403C1031.33 11.4403 1031.84 11.0046 1031.84 10.4671C1031.84 9.92953 1031.33 9.49377 1030.71 9.49377C1030.08 9.49377 1029.57 9.92953 1029.57 10.4671C1029.57 11.0046 1030.08 11.4403 1030.71 11.4403Z" fill="#FEFEFE"/>
<path d="M1201.53 11.4403C1202.16 11.4403 1202.67 11.0046 1202.67 10.4671C1202.67 9.92953 1202.16 9.49377 1201.53 9.49377C1200.9 9.49377 1200.39 9.92953 1200.39 10.4671C1200.39 11.0046 1200.9 11.4403 1201.53 11.4403Z" fill="#FEFEFE"/>
<path d="M1372.36 11.4403C1372.99 11.4403 1373.5 11.0046 1373.5 10.4671C1373.5 9.92953 1372.99 9.49377 1372.36 9.49377C1371.73 9.49377 1371.22 9.92953 1371.22 10.4671C1371.22 11.0046 1371.73 11.4403 1372.36 11.4403Z" fill="#FEFEFE"/>
<path d="M768.772 118.497C769.401 118.497 769.91 118.061 769.91 117.524C769.91 116.986 769.401 116.55 768.772 116.55C768.143 116.55 767.633 116.986 767.633 117.524C767.633 118.061 768.143 118.497 768.772 118.497Z" fill="#FEFEFE"/>
<path d="M939.598 118.497C940.227 118.497 940.736 118.061 940.736 117.524C940.736 116.986 940.227 116.55 939.598 116.55C938.969 116.55 938.459 116.986 938.459 117.524C938.459 118.061 938.969 118.497 939.598 118.497Z" fill="#FEFEFE"/>
<path d="M1110.42 118.497C1111.05 118.497 1111.56 118.061 1111.56 117.524C1111.56 116.986 1111.05 116.55 1110.42 116.55C1109.79 116.55 1109.28 116.986 1109.28 117.524C1109.28 118.061 1109.79 118.497 1110.42 118.497Z" fill="#FEFEFE"/>
<path d="M1281.25 118.497C1281.88 118.497 1282.39 118.061 1282.39 117.524C1282.39 116.986 1281.88 116.55 1281.25 116.55C1280.62 116.55 1280.11 116.986 1280.11 117.524C1280.11 118.061 1280.62 118.497 1281.25 118.497Z" fill="#FEFEFE"/>
<path d="M700.441 225.554C701.07 225.554 701.579 225.118 701.579 224.58C701.579 224.043 701.07 223.607 700.441 223.607C699.812 223.607 699.302 224.043 699.302 224.58C699.302 225.118 699.812 225.554 700.441 225.554Z" fill="#FEFEFE"/>
<path d="M871.268 225.554C871.897 225.554 872.407 225.118 872.407 224.58C872.407 224.043 871.897 223.607 871.268 223.607C870.639 223.607 870.129 224.043 870.129 224.58C870.129 225.118 870.639 225.554 871.268 225.554Z" fill="#FEFEFE"/>
<path d="M1042.09 225.554C1042.72 225.554 1043.23 225.118 1043.23 224.58C1043.23 224.043 1042.72 223.607 1042.09 223.607C1041.46 223.607 1040.95 224.043 1040.95 224.58C1040.95 225.118 1041.46 225.554 1042.09 225.554Z" fill="#FEFEFE"/>
<path d="M1212.92 225.554C1213.55 225.554 1214.06 225.118 1214.06 224.58C1214.06 224.043 1213.55 223.607 1212.92 223.607C1212.29 223.607 1211.78 224.043 1211.78 224.58C1211.78 225.118 1212.29 225.554 1212.92 225.554Z" fill="#FEFEFE"/>
<path d="M1383.75 225.554C1384.38 225.554 1384.88 225.118 1384.88 224.58C1384.88 224.043 1384.38 223.607 1383.75 223.607C1383.12 223.607 1382.61 224.043 1382.61 224.58C1382.61 225.118 1383.12 225.554 1383.75 225.554Z" fill="#FEFEFE"/>
<path d="M791.548 330.667C792.177 330.667 792.687 330.231 792.687 329.694C792.687 329.156 792.177 328.72 791.548 328.72C790.919 328.72 790.409 329.156 790.409 329.694C790.409 330.231 790.919 330.667 791.548 330.667Z" fill="#FEFEFE"/>
<path d="M962.374 330.667C963.003 330.667 963.513 330.231 963.513 329.694C963.513 329.156 963.003 328.72 962.374 328.72C961.745 328.72 961.235 329.156 961.235 329.694C961.235 330.231 961.745 330.667 962.374 330.667Z" fill="#FEFEFE"/>
<path d="M1133.2 330.667C1133.83 330.667 1134.34 330.231 1134.34 329.694C1134.34 329.156 1133.83 328.72 1133.2 328.72C1132.57 328.72 1132.06 329.156 1132.06 329.694C1132.06 330.231 1132.57 330.667 1133.2 330.667Z" fill="#FEFEFE"/>
<path d="M1304.03 330.667C1304.66 330.667 1305.17 330.231 1305.17 329.694C1305.17 329.156 1304.66 328.72 1304.03 328.72C1303.4 328.72 1302.89 329.156 1302.89 329.694C1302.89 330.231 1303.4 330.667 1304.03 330.667Z" fill="#FEFEFE"/>
<path d="M723.219 437.711C723.848 437.711 724.357 437.276 724.357 436.738C724.357 436.201 723.848 435.765 723.219 435.765C722.59 435.765 722.08 436.201 722.08 436.738C722.08 437.276 722.59 437.711 723.219 437.711Z" fill="#FEFEFE"/>
<path d="M894.043 437.711C894.672 437.711 895.182 437.276 895.182 436.738C895.182 436.201 894.672 435.765 894.043 435.765C893.414 435.765 892.904 436.201 892.904 436.738C892.904 437.276 893.414 437.711 894.043 437.711Z" fill="#FEFEFE"/>
<path d="M1064.87 437.711C1065.5 437.711 1066.01 437.276 1066.01 436.738C1066.01 436.201 1065.5 435.765 1064.87 435.765C1064.24 435.765 1063.73 436.201 1063.73 436.738C1063.73 437.276 1064.24 437.711 1064.87 437.711Z" fill="#FEFEFE"/>
<path d="M1235.7 437.711C1236.33 437.711 1236.84 437.276 1236.84 436.738C1236.84 436.201 1236.33 435.765 1235.7 435.765C1235.07 435.765 1234.56 436.201 1234.56 436.738C1234.56 437.276 1235.07 437.711 1235.7 437.711Z" fill="#FEFEFE"/>
<path d="M1406.52 437.711C1407.15 437.711 1407.66 437.276 1407.66 436.738C1407.66 436.201 1407.15 435.765 1406.52 435.765C1405.89 435.765 1405.38 436.201 1405.38 436.738C1405.38 437.276 1405.89 437.711 1406.52 437.711Z" fill="#FEFEFE"/>
<path d="M654.888 544.78C655.517 544.78 656.027 544.344 656.027 543.807C656.027 543.269 655.517 542.833 654.888 542.833C654.259 542.833 653.749 543.269 653.749 543.807C653.749 544.344 654.259 544.78 654.888 544.78Z" fill="#FEFEFE"/>
<path d="M825.714 544.78C826.343 544.78 826.852 544.344 826.852 543.807C826.852 543.269 826.343 542.833 825.714 542.833C825.085 542.833 824.575 543.269 824.575 543.807C824.575 544.344 825.085 544.78 825.714 544.78Z" fill="#FEFEFE"/>
<path d="M996.54 544.78C997.169 544.78 997.679 544.344 997.679 543.807C997.679 543.269 997.169 542.833 996.54 542.833C995.911 542.833 995.401 543.269 995.401 543.807C995.401 544.344 995.911 544.78 996.54 544.78Z" fill="#FEFEFE"/>
<path d="M1167.37 544.78C1167.99 544.78 1168.5 544.344 1168.5 543.807C1168.5 543.269 1167.99 542.833 1167.37 542.833C1166.74 542.833 1166.23 543.269 1166.23 543.807C1166.23 544.344 1166.74 544.78 1167.37 544.78Z" fill="#FEFEFE"/>
<path d="M1338.19 544.78C1338.82 544.78 1339.33 544.344 1339.33 543.807C1339.33 543.269 1338.82 542.833 1338.19 542.833C1337.56 542.833 1337.05 543.269 1337.05 543.807C1337.05 544.344 1337.56 544.78 1338.19 544.78Z" fill="#FEFEFE"/>
<path d="M723.219 651.824C723.848 651.824 724.357 651.389 724.357 650.851C724.357 650.314 723.848 649.878 723.219 649.878C722.59 649.878 722.08 650.314 722.08 650.851C722.08 651.389 722.59 651.824 723.219 651.824Z" fill="#FEFEFE"/>
<path d="M894.043 651.824C894.672 651.824 895.182 651.389 895.182 650.851C895.182 650.314 894.672 649.878 894.043 649.878C893.414 649.878 892.904 650.314 892.904 650.851C892.904 651.389 893.414 651.824 894.043 651.824Z" fill="#FEFEFE"/>
<path d="M1064.87 651.824C1065.5 651.824 1066.01 651.389 1066.01 650.851C1066.01 650.314 1065.5 649.878 1064.87 649.878C1064.24 649.878 1063.73 650.314 1063.73 650.851C1063.73 651.389 1064.24 651.824 1064.87 651.824Z" fill="#FEFEFE"/>
<path d="M1235.7 651.824C1236.33 651.824 1236.84 651.389 1236.84 650.851C1236.84 650.314 1236.33 649.878 1235.7 649.878C1235.07 649.878 1234.56 650.314 1234.56 650.851C1234.56 651.389 1235.07 651.824 1235.7 651.824Z" fill="#FEFEFE"/>
<path d="M1406.52 651.824C1407.15 651.824 1407.66 651.389 1407.66 650.851C1407.66 650.314 1407.15 649.878 1406.52 649.878C1405.89 649.878 1405.38 650.314 1405.38 650.851C1405.38 651.389 1405.89 651.824 1406.52 651.824Z" fill="#FEFEFE"/>
<path d="M898.599 3.65116C899.857 3.65116 900.877 2.77968 900.877 1.70467C900.877 0.629659 899.857 -0.241821 898.599 -0.241821C897.341 -0.241821 896.322 0.629659 896.322 1.70467C896.322 2.77968 897.341 3.65116 898.599 3.65116Z" fill="#FEFEFE"/>
<path d="M1240.25 13.3791C1241.51 13.3791 1242.53 12.5076 1242.53 11.4326C1242.53 10.3575 1241.51 9.48608 1240.25 9.48608C1238.99 9.48608 1237.97 10.3575 1237.97 11.4326C1237.97 12.5076 1238.99 13.3791 1240.25 13.3791Z" fill="#FEFEFE"/>
<path d="M685.637 198.308C686.895 198.308 687.914 197.437 687.914 196.362C687.914 195.287 686.895 194.415 685.637 194.415C684.379 194.415 683.359 195.287 683.359 196.362C683.359 197.437 684.379 198.308 685.637 198.308Z" fill="#FEFEFE"/>
<path d="M1027.29 208.036C1028.55 208.036 1029.56 207.165 1029.56 206.09C1029.56 205.015 1028.55 204.143 1027.29 204.143C1026.03 204.143 1025.01 205.015 1025.01 206.09C1025.01 207.165 1026.03 208.036 1027.29 208.036Z" fill="#FEFEFE"/>
<path d="M1368.94 198.308C1370.2 198.308 1371.22 197.437 1371.22 196.362C1371.22 195.287 1370.2 194.415 1368.94 194.415C1367.68 194.415 1366.66 195.287 1366.66 196.362C1366.66 197.437 1367.68 198.308 1368.94 198.308Z" fill="#FEFEFE"/>
<path d="M711.83 365.7C713.088 365.7 714.107 364.829 714.107 363.754C714.107 362.679 713.088 361.807 711.83 361.807C710.572 361.807 709.552 362.679 709.552 363.754C709.552 364.829 710.572 365.7 711.83 365.7Z" fill="#FEFEFE"/>
<path d="M1053.48 375.428C1054.74 375.428 1055.76 374.557 1055.76 373.482C1055.76 372.407 1054.74 371.535 1053.48 371.535C1052.22 371.535 1051.2 372.407 1051.2 373.482C1051.2 374.557 1052.22 375.428 1053.48 375.428Z" fill="#FEFEFE"/>
<path d="M1395.13 365.7C1396.39 365.7 1397.41 364.829 1397.41 363.754C1397.41 362.679 1396.39 361.807 1395.13 361.807C1393.88 361.807 1392.86 362.679 1392.86 363.754C1392.86 364.829 1393.88 365.7 1395.13 365.7Z" fill="#FEFEFE"/>
<path d="M794.965 573.972C796.222 573.972 797.242 573.1 797.242 572.025C797.242 570.95 796.222 570.079 794.965 570.079C793.707 570.079 792.687 570.95 792.687 572.025C792.687 573.1 793.707 573.972 794.965 573.972Z" fill="#FEFEFE"/>
<path d="M1136.62 583.7C1137.87 583.7 1138.89 582.828 1138.89 581.753C1138.89 580.678 1137.87 579.807 1136.62 579.807C1135.36 579.807 1134.34 580.678 1134.34 581.753C1134.34 582.828 1135.36 583.7 1136.62 583.7Z" fill="#FEFEFE"/>
<path d="M739.162 110.708C740.42 110.708 741.44 109.836 741.44 108.761C741.44 107.686 740.42 106.815 739.162 106.815C737.904 106.815 736.885 107.686 736.885 108.761C736.885 109.836 737.904 110.708 739.162 110.708Z" fill="#FEFEFE"/>
<path d="M1080.81 120.436C1082.07 120.436 1083.09 119.564 1083.09 118.489C1083.09 117.414 1082.07 116.543 1080.81 116.543C1079.56 116.543 1078.54 117.414 1078.54 118.489C1078.54 119.564 1079.56 120.436 1080.81 120.436Z" fill="#FEFEFE"/>
<path d="M1422.47 110.708C1423.72 110.708 1424.74 109.836 1424.74 108.761C1424.74 107.686 1423.72 106.815 1422.47 106.815C1421.21 106.815 1420.19 107.686 1420.19 108.761C1420.19 109.836 1421.21 110.708 1422.47 110.708Z" fill="#FEFEFE"/>
<path d="M526.199 303.41C527.457 303.41 528.477 302.538 528.477 301.463C528.477 300.388 527.457 299.517 526.199 299.517C524.941 299.517 523.922 300.388 523.922 301.463C523.922 302.538 524.941 303.41 526.199 303.41Z" fill="#FEFEFE"/>
<path d="M867.85 313.137C869.108 313.137 870.128 312.266 870.128 311.191C870.128 310.116 869.108 309.245 867.85 309.245C866.592 309.245 865.573 310.116 865.573 311.191C865.573 312.266 866.592 313.137 867.85 313.137Z" fill="#FEFEFE"/>
<path d="M1209.5 303.41C1210.76 303.41 1211.78 302.538 1211.78 301.463C1211.78 300.388 1210.76 299.517 1209.5 299.517C1208.25 299.517 1207.23 300.388 1207.23 301.463C1207.23 302.538 1208.25 303.41 1209.5 303.41Z" fill="#FEFEFE"/>
<path d="M552.393 472.745C553.651 472.745 554.67 471.873 554.67 470.798C554.67 469.723 553.651 468.852 552.393 468.852C551.135 468.852 550.115 469.723 550.115 470.798C550.115 471.873 551.135 472.745 552.393 472.745Z" fill="#FEFEFE"/>
<path d="M894.045 482.485C895.302 482.485 896.322 481.613 896.322 480.538C896.322 479.463 895.302 478.592 894.045 478.592C892.787 478.592 891.767 479.463 891.767 480.538C891.767 481.613 892.787 482.485 894.045 482.485Z" fill="#FEFEFE"/>
<path d="M1235.7 472.745C1236.95 472.745 1237.97 471.873 1237.97 470.798C1237.97 469.723 1236.95 468.852 1235.7 468.852C1234.44 468.852 1233.42 469.723 1233.42 470.798C1233.42 471.873 1234.44 472.745 1235.7 472.745Z" fill="#FEFEFE"/>
<path d="M635.528 681.028C636.786 681.028 637.806 680.157 637.806 679.082C637.806 678.007 636.786 677.135 635.528 677.135C634.27 677.135 633.251 678.007 633.251 679.082C633.251 680.157 634.27 681.028 635.528 681.028Z" fill="#FEFEFE"/>
<path d="M977.18 690.756C978.437 690.756 979.457 689.885 979.457 688.81C979.457 687.735 978.437 686.863 977.18 686.863C975.922 686.863 974.902 687.735 974.902 688.81C974.902 689.885 975.922 690.756 977.18 690.756Z" fill="#FEFEFE"/>
<path d="M1318.83 681.028C1320.09 681.028 1321.11 680.157 1321.11 679.082C1321.11 678.007 1320.09 677.135 1318.83 677.135C1317.57 677.135 1316.55 678.007 1316.55 679.082C1316.55 680.157 1317.57 681.028 1318.83 681.028Z" fill="#FEFEFE"/>
</g>
</g>
</g>
<defs>
<clipPath id="clip0_19_712">
<rect width="1438" height="727" fill="white" transform="translate(0 -5)"/>
</clipPath>
<clipPath id="clip1_19_712">
<rect width="2086" height="2292" fill="white" transform="translate(-610 -1213)"/>
</clipPath>
</defs>
</svg>
