<svg width="56" height="56" viewBox="0 0 56 56" fill="none" xmlns="http://www.w3.org/2000/svg">
<path d="M27.053 3.00234C24.7089 2.76195 19.1795 21.1511 17.5565 21.1511C15.9335 21.1511 3.49213 19.4685 3.0113 21.1511C2.53046 22.8338 17.5565 33.651 17.5565 35.2135C17.5565 36.776 14.0705 51.7998 15.0922 52.9416C16.114 54.0834 25.911 38.098 27.053 38.3985C28.195 38.699 42.9806 53.7829 43.8822 52.9416C44.7837 52.1003 35.708 36.8961 35.708 35.2135C35.708 33.5308 51.9962 22.4733 52.9579 21.1511C53.9196 19.829 38.1122 21.1511 35.708 21.1511C33.3038 21.1511 29.397 3.24272 27.053 3.00234Z" stroke="white" stroke-width="5" stroke-linecap="round"/>
</svg>
