<svg width="547" height="349" viewBox="0 0 547 349" fill="none" xmlns="http://www.w3.org/2000/svg">
<rect x="0.5" y="0.5" width="546" height="348" rx="19.5" fill="white" stroke="black"/>
<rect x="64" y="79" width="418" height="76" rx="10" fill="white"/>
<rect x="64.5" y="79.5" width="417" height="75" rx="9.5" stroke="black" stroke-opacity="0.7"/>
<rect x="64" y="195" width="418" height="76" rx="10" fill="white"/>
<rect x="64.5" y="195.5" width="417" height="75" rx="9.5" stroke="black" stroke-opacity="0.7"/>
<path d="M106.168 125V109.976H105.784L103.024 115.64H100.36L104.08 108.2H108.688V125H106.168ZM112.278 128.264V126.848H113.094C113.75 126.848 114.078 126.52 114.078 125.864V125.096H113.718C113.158 125.096 112.694 124.928 112.326 124.592C111.958 124.256 111.774 123.832 111.774 123.32C111.774 122.76 111.958 122.312 112.326 121.976C112.694 121.624 113.158 121.448 113.718 121.448C114.278 121.448 114.734 121.632 115.086 122C115.454 122.352 115.638 122.816 115.638 123.392V125.888C115.638 127.472 114.846 128.264 113.262 128.264H112.278ZM124.392 125.336C122.44 125.336 120.88 124.784 119.712 123.68C118.56 122.56 117.984 120.88 117.984 118.64V114.56C117.984 112.368 118.56 110.704 119.712 109.568C120.88 108.432 122.44 107.864 124.392 107.864C126.36 107.864 127.92 108.432 129.072 109.568C130.24 110.704 130.824 112.368 130.824 114.56V118.64C130.824 120.88 130.24 122.56 129.072 123.68C127.92 124.784 126.36 125.336 124.392 125.336ZM124.392 123.08C125.72 123.08 126.704 122.704 127.344 121.952C127.984 121.184 128.304 120.112 128.304 118.736V114.416C128.304 113.04 127.96 111.984 127.272 111.248C126.584 110.496 125.624 110.12 124.392 110.12C123.144 110.12 122.184 110.504 121.512 111.272C120.84 112.024 120.504 113.072 120.504 114.416V118.736C120.504 120.144 120.824 121.224 121.464 121.976C122.12 122.712 123.096 123.08 124.392 123.08ZM139.861 125.336C137.909 125.336 136.349 124.784 135.181 123.68C134.029 122.56 133.453 120.88 133.453 118.64V114.56C133.453 112.368 134.029 110.704 135.181 109.568C136.349 108.432 137.909 107.864 139.861 107.864C141.829 107.864 143.389 108.432 144.541 109.568C145.709 110.704 146.293 112.368 146.293 114.56V118.64C146.293 120.88 145.709 122.56 144.541 123.68C143.389 124.784 141.829 125.336 139.861 125.336ZM139.861 123.08C141.189 123.08 142.173 122.704 142.813 121.952C143.453 121.184 143.773 120.112 143.773 118.736V114.416C143.773 113.04 143.429 111.984 142.741 111.248C142.053 110.496 141.093 110.12 139.861 110.12C138.613 110.12 137.653 110.504 136.981 111.272C136.309 112.024 135.973 113.072 135.973 114.416V118.736C135.973 120.144 136.293 121.224 136.933 121.976C137.589 122.712 138.565 123.08 139.861 123.08ZM155.33 125.336C153.378 125.336 151.818 124.784 150.65 123.68C149.498 122.56 148.922 120.88 148.922 118.64V114.56C148.922 112.368 149.498 110.704 150.65 109.568C151.818 108.432 153.378 107.864 155.33 107.864C157.298 107.864 158.858 108.432 160.01 109.568C161.178 110.704 161.762 112.368 161.762 114.56V118.64C161.762 120.88 161.178 122.56 160.01 123.68C158.858 124.784 157.298 125.336 155.33 125.336ZM155.33 123.08C156.658 123.08 157.642 122.704 158.282 121.952C158.922 121.184 159.242 120.112 159.242 118.736V114.416C159.242 113.04 158.898 111.984 158.21 111.248C157.522 110.496 156.562 110.12 155.33 110.12C154.082 110.12 153.122 110.504 152.45 111.272C151.778 112.024 151.442 113.072 151.442 114.416V118.736C151.442 120.144 151.762 121.224 152.402 121.976C153.058 122.712 154.034 123.08 155.33 123.08Z" fill="black"/>
<path d="M103.384 241V240.4C103.384 239.792 103.432 239.288 103.528 238.888C103.624 238.472 103.824 237.992 104.128 237.448L110.128 226.768V226.456H100.696V224.2H112.744V227.176L106.432 238.504C106.24 238.856 106.104 239.176 106.024 239.464C105.944 239.736 105.904 240.08 105.904 240.496V241H103.384ZM120.654 241.336C119.39 241.336 118.294 241.104 117.366 240.64C116.438 240.176 115.718 239.52 115.206 238.672C114.71 237.824 114.462 236.84 114.462 235.72V235.456H117.03V235.696C117.03 236.72 117.342 237.544 117.966 238.168C118.606 238.776 119.494 239.08 120.63 239.08C121.798 239.08 122.702 238.76 123.342 238.12C123.982 237.48 124.302 236.616 124.302 235.528V235.312C124.302 234.272 123.982 233.44 123.342 232.816C122.718 232.192 121.918 231.88 120.942 231.88C120.398 231.88 119.942 231.968 119.574 232.144C119.222 232.304 118.934 232.504 118.71 232.744C118.502 232.984 118.326 233.216 118.182 233.44H114.99V224.2H126.246V226.48H117.51V231.424H117.894C118.054 231.152 118.278 230.896 118.566 230.656C118.87 230.4 119.262 230.192 119.742 230.032C120.222 229.872 120.798 229.792 121.47 229.792C122.462 229.792 123.358 230.008 124.158 230.44C124.974 230.856 125.622 231.48 126.102 232.312C126.582 233.128 126.822 234.12 126.822 235.288V235.552C126.822 236.72 126.574 237.736 126.078 238.6C125.582 239.464 124.87 240.136 123.942 240.616C123.03 241.096 121.934 241.336 120.654 241.336ZM129.621 244.264V242.848H130.437C131.093 242.848 131.421 242.52 131.421 241.864V241.096H131.061C130.501 241.096 130.037 240.928 129.669 240.592C129.301 240.256 129.117 239.832 129.117 239.32C129.117 238.76 129.301 238.312 129.669 237.976C130.037 237.624 130.501 237.448 131.061 237.448C131.621 237.448 132.077 237.632 132.429 238C132.797 238.352 132.981 238.816 132.981 239.392V241.888C132.981 243.472 132.189 244.264 130.605 244.264H129.621ZM141.736 241.336C139.784 241.336 138.224 240.784 137.056 239.68C135.904 238.56 135.328 236.88 135.328 234.64V230.56C135.328 228.368 135.904 226.704 137.056 225.568C138.224 224.432 139.784 223.864 141.736 223.864C143.704 223.864 145.264 224.432 146.416 225.568C147.584 226.704 148.168 228.368 148.168 230.56V234.64C148.168 236.88 147.584 238.56 146.416 239.68C145.264 240.784 143.704 241.336 141.736 241.336ZM141.736 239.08C143.064 239.08 144.048 238.704 144.688 237.952C145.328 237.184 145.648 236.112 145.648 234.736V230.416C145.648 229.04 145.304 227.984 144.616 227.248C143.928 226.496 142.968 226.12 141.736 226.12C140.488 226.12 139.528 226.504 138.856 227.272C138.184 228.024 137.848 229.072 137.848 230.416V234.736C137.848 236.144 138.168 237.224 138.808 237.976C139.464 238.712 140.44 239.08 141.736 239.08ZM157.205 241.336C155.253 241.336 153.693 240.784 152.525 239.68C151.373 238.56 150.797 236.88 150.797 234.64V230.56C150.797 228.368 151.373 226.704 152.525 225.568C153.693 224.432 155.253 223.864 157.205 223.864C159.173 223.864 160.733 224.432 161.885 225.568C163.053 226.704 163.637 228.368 163.637 230.56V234.64C163.637 236.88 163.053 238.56 161.885 239.68C160.733 240.784 159.173 241.336 157.205 241.336ZM157.205 239.08C158.533 239.08 159.517 238.704 160.157 237.952C160.797 237.184 161.117 236.112 161.117 234.736V230.416C161.117 229.04 160.773 227.984 160.085 227.248C159.397 226.496 158.437 226.12 157.205 226.12C155.957 226.12 154.997 226.504 154.325 227.272C153.653 228.024 153.317 229.072 153.317 230.416V234.736C153.317 236.144 153.637 237.224 154.277 237.976C154.933 238.712 155.909 239.08 157.205 239.08ZM172.673 241.336C170.721 241.336 169.161 240.784 167.993 239.68C166.841 238.56 166.265 236.88 166.265 234.64V230.56C166.265 228.368 166.841 226.704 167.993 225.568C169.161 224.432 170.721 223.864 172.673 223.864C174.641 223.864 176.201 224.432 177.353 225.568C178.521 226.704 179.105 228.368 179.105 230.56V234.64C179.105 236.88 178.521 238.56 177.353 239.68C176.201 240.784 174.641 241.336 172.673 241.336ZM172.673 239.08C174.001 239.08 174.985 238.704 175.625 237.952C176.265 237.184 176.585 236.112 176.585 234.736V230.416C176.585 229.04 176.241 227.984 175.553 227.248C174.865 226.496 173.905 226.12 172.673 226.12C171.425 226.12 170.465 226.504 169.793 227.272C169.121 228.024 168.785 229.072 168.785 230.416V234.736C168.785 236.144 169.105 237.224 169.745 237.976C170.401 238.712 171.377 239.08 172.673 239.08Z" fill="black"/>
<path d="M337.752 241V224.2H342.744L347.304 239.272H347.688V224.2H350.256V241H345.264L340.704 225.904H340.32V241H337.752ZM359.592 241.336C358.392 241.336 357.32 241.08 356.376 240.568C355.432 240.04 354.688 239.272 354.144 238.264C353.6 237.256 353.328 236.024 353.328 234.568V230.632C353.328 228.44 353.928 226.768 355.128 225.616C356.328 224.448 357.952 223.864 360 223.864C362.016 223.864 363.568 224.416 364.656 225.52C365.744 226.608 366.288 228.072 366.288 229.912V230.032H363.72V229.84C363.72 229.152 363.584 228.536 363.312 227.992C363.04 227.432 362.632 226.992 362.088 226.672C361.544 226.352 360.848 226.192 360 226.192C358.72 226.192 357.72 226.584 357 227.368C356.28 228.136 355.92 229.208 355.92 230.584V234.616C355.92 235.976 356.28 237.056 357 237.856C357.72 238.64 358.728 239.032 360.024 239.032C361.304 239.032 362.24 238.68 362.832 237.976C363.424 237.272 363.72 236.36 363.72 235.24V234.928H359.208V232.696H366.288V241H363.888V239.296H363.504C363.36 239.6 363.144 239.912 362.856 240.232C362.584 240.552 362.184 240.816 361.656 241.024C361.144 241.232 360.456 241.336 359.592 241.336ZM369.627 241V224.2H374.619L379.179 239.272H379.563V224.2H382.131V241H377.139L372.579 225.904H372.195V241H369.627Z" fill="black"/>
<path d="M344.04 125.336C342.712 125.336 341.568 125.096 340.608 124.616C339.664 124.136 338.928 123.448 338.4 122.552C337.888 121.64 337.632 120.536 337.632 119.24V108.2H340.248V119.312C340.248 120.496 340.576 121.408 341.232 122.048C341.888 122.688 342.824 123.008 344.04 123.008C345.256 123.008 346.192 122.688 346.848 122.048C347.504 121.408 347.832 120.496 347.832 119.312V108.2H350.424V119.24C350.424 120.536 350.168 121.64 349.656 122.552C349.144 123.448 348.408 124.136 347.448 124.616C346.488 125.096 345.352 125.336 344.04 125.336ZM359.519 125.336C358.255 125.336 357.135 125.112 356.159 124.664C355.183 124.216 354.415 123.56 353.855 122.696C353.311 121.816 353.039 120.752 353.039 119.504V118.904H355.607V119.504C355.607 120.688 355.959 121.576 356.663 122.168C357.383 122.76 358.335 123.056 359.519 123.056C360.719 123.056 361.623 122.808 362.231 122.312C362.839 121.8 363.143 121.144 363.143 120.344C363.143 119.816 362.999 119.384 362.711 119.048C362.423 118.712 362.015 118.448 361.487 118.256C360.959 118.048 360.327 117.856 359.591 117.68L358.703 117.464C357.631 117.208 356.695 116.896 355.895 116.528C355.111 116.144 354.503 115.64 354.071 115.016C353.639 114.392 353.423 113.592 353.423 112.616C353.423 111.624 353.663 110.776 354.143 110.072C354.639 109.368 355.319 108.824 356.183 108.44C357.047 108.056 358.063 107.864 359.231 107.864C360.399 107.864 361.439 108.064 362.351 108.464C363.279 108.864 364.007 109.456 364.535 110.24C365.063 111.024 365.327 112.008 365.327 113.192V114.056H362.759V113.192C362.759 112.472 362.607 111.888 362.303 111.44C362.015 110.992 361.607 110.664 361.079 110.456C360.551 110.248 359.935 110.144 359.231 110.144C358.207 110.144 357.407 110.36 356.831 110.792C356.271 111.208 355.991 111.792 355.991 112.544C355.991 113.056 356.111 113.48 356.351 113.816C356.607 114.136 356.975 114.4 357.455 114.608C357.935 114.816 358.535 115 359.255 115.16L360.143 115.376C361.231 115.616 362.191 115.928 363.023 116.312C363.855 116.68 364.511 117.184 364.991 117.824C365.471 118.464 365.711 119.288 365.711 120.296C365.711 121.304 365.455 122.184 364.943 122.936C364.447 123.688 363.735 124.28 362.807 124.712C361.879 125.128 360.783 125.336 359.519 125.336ZM367.714 125V122.696H369.97V110.504H367.714V108.2H374.434C376.674 108.2 378.386 108.768 379.57 109.904C380.77 111.04 381.37 112.752 381.37 115.04V118.184C381.37 120.472 380.77 122.184 379.57 123.32C378.386 124.44 376.674 125 374.434 125H367.714ZM372.586 122.648H374.458C375.914 122.648 376.994 122.28 377.698 121.544C378.402 120.808 378.754 119.712 378.754 118.256V114.944C378.754 113.472 378.402 112.376 377.698 111.656C376.994 110.936 375.914 110.576 374.458 110.576H372.586V122.648ZM387.604 125V110.552H382.444V108.2H395.356V110.552H390.196V125H387.604Z" fill="black"/>
<g clip-path="url(#clip0_105_8)">
<path d="M309 132C317.284 132 324 125.284 324 117C324 108.716 317.284 102 309 102C300.716 102 294 108.716 294 117C294 125.284 300.716 132 309 132Z" fill="#26A17B"/>
<path fill-rule="evenodd" clip-rule="evenodd" d="M310.802 118.297V118.295C310.699 118.302 310.167 118.334 308.981 118.334C308.034 118.334 307.368 118.306 307.133 118.295V118.298C303.488 118.137 300.768 117.503 300.768 116.743C300.768 115.985 303.488 115.35 307.133 115.187V117.666C307.372 117.683 308.054 117.723 308.997 117.723C310.129 117.723 310.696 117.676 310.802 117.667V115.189C314.439 115.351 317.153 115.986 317.153 116.743C317.153 117.503 314.439 118.135 310.802 118.297ZM310.802 114.931V112.713H315.878V109.33H302.058V112.713H307.133V114.93C303.008 115.119 299.906 115.937 299.906 116.916C299.906 117.894 303.008 118.711 307.133 118.901V126.009H310.802V118.899C314.92 118.71 318.015 117.893 318.015 116.916C318.015 115.938 314.92 115.121 310.802 114.931Z" fill="white"/>
</g>
<g clip-path="url(#clip1_105_8)">
<path d="M427.292 114.417L432.5 119.625L437.708 114.417" fill="black"/>
</g>
<g clip-path="url(#clip2_105_8)">
<path d="M427.292 230.417L432.5 235.625L437.708 230.417" fill="black"/>
</g>
<path d="M297.333 221.167C296.449 221.167 295.601 221.518 294.976 222.143C294.351 222.768 294 223.616 294 224.5V239.5C294 240.384 294.351 241.232 294.976 241.857C295.601 242.482 296.449 242.833 297.333 242.833H304V221.167H297.333Z" fill="#009A49"/>
<path d="M304 221.167H314V242.833H304V221.167Z" fill="#EEEEEE"/>
<path d="M320.667 221.167H314V242.833H320.667C321.551 242.833 322.399 242.482 323.024 241.857C323.649 241.232 324 240.384 324 239.5V224.5C324 223.616 323.649 222.768 323.024 222.143C322.399 221.518 321.551 221.167 320.667 221.167Z" fill="#009A49"/>
<defs>
<clipPath id="clip0_105_8">
<rect width="30" height="30" fill="white" transform="translate(294 102)"/>
</clipPath>
<clipPath id="clip1_105_8">
<rect width="25" height="25" fill="white" transform="translate(420 104)"/>
</clipPath>
<clipPath id="clip2_105_8">
<rect width="25" height="25" fill="white" transform="translate(420 220)"/>
</clipPath>
</defs>
</svg>
